<?xml version="1.0" encoding="UTF-8" standalone="no" ?>
<!DOCTYPE svg PUBLIC "-//W3C//DTD SVG 1.1//EN" "http://www.w3.org/Graphics/SVG/1.1/DTD/svg11.dtd">
<svg xmlns="http://www.w3.org/2000/svg" xmlns:xlink="http://www.w3.org/1999/xlink" version="1.1" width="1280" height="1024" viewBox="0 0 1280 1024" xml:space="preserve">
<desc>Created with Fabric.js 5.3.0</desc>
<defs>
</defs>
<g transform="matrix(1 0 0 1 640 512)" id="background-logo"  >
<rect style="stroke: none; stroke-width: 0; stroke-dasharray: none; stroke-linecap: butt; stroke-dashoffset: 0; stroke-linejoin: miter; stroke-miterlimit: 4; fill: rgb(255,255,255); fill-opacity: 0; fill-rule: nonzero; opacity: 1;"  paint-order="stroke"  x="-640" y="-512" rx="0" ry="0" width="1280" height="1024" />
</g>
<g transform="matrix(5.266369152845155 0 0 5.266369152845155 639.7474324688749 511.4611892669334)" id="logo-logo"  >
<g style=""  paint-order="stroke"   >
		<g transform="matrix(0.447842401165958 0 0 0.447842401165958 -22.37905439059665 -28.76675371508702)"  >
<path style="stroke: none; stroke-width: 1; stroke-dasharray: none; stroke-linecap: butt; stroke-dashoffset: 0; stroke-linejoin: miter; stroke-miterlimit: 4; fill: rgb(103,179,233); fill-rule: nonzero; opacity: 1;"  paint-order="stroke"  transform=" translate(-300.0291900499999, -285.76590730000004)" d="M 215.4926147 348.1326294 C 215.4926147 341.4343262 220.5519104 335.9767151 227.0464782 335.2184448 L 241.64198299999998 278.3557434 C 238.3174896 275.98690799999997 236.13209529999997 272.1211853 236.13209529999997 267.7279358 C 236.13209529999997 260.5114746 241.98225399999998 254.66130070000003 249.19871519999998 254.66130070000003 C 255.88706969999998 254.66130070000003 261.3387146 259.70529180000005 262.1099243 266.18612670000005 L 309.18218989999997 278.15957640000005 C 311.5494384 274.8219604 315.4248962 272.62802120000003 319.82827749999996 272.62802120000003 C 323.99932849999993 272.62802120000003 327.67044059999995 274.6184387 330.06295769999997 277.6614685 L 391.39083859999994 258.8470459 C 391.8676757999999 252.0640717 397.4616393999999 246.6927338 404.36566159999995 246.6927338 C 405.08795159999994 246.6927338 405.78381349999995 246.79251100000002 406.47412109999993 246.9051972 L 420.4002074999999 223.132248 C 395.4410094999999 205.1961365 364.83840939999993 194.61979680000002 331.7564086999999 194.61979680000002 C 247.7547149999999 194.61979680000002 179.6581725999999 262.7163392 179.6581725999999 346.71804810000003 C 179.6581725999999 357.0606384 180.7147979999999 367.15197750000004 182.68611139999987 376.91201780000006 L 216.05313109999986 351.71652220000004 C 215.7245789 350.5704346 215.4926147 349.3842468 215.4926147 348.1326294 z" stroke-linecap="round" />
</g>
		<g transform="matrix(0.447842401165958 0 0 0.447842401165958 -11.05489640960161 -8.986830154000359)"  >
<path style="stroke: none; stroke-width: 1; stroke-dasharray: none; stroke-linecap: butt; stroke-dashoffset: 0; stroke-linejoin: miter; stroke-miterlimit: 4; fill: rgb(50,152,226); fill-rule: nonzero; opacity: 1;"  paint-order="stroke"  transform=" translate(-325.3152236000001, -329.93305964999996)" d="M 427.8859863 228.8635559 L 414.53790280000004 251.6500549 C 416.32159420000005 253.88394159999999 417.43228150000004 256.67834469999997 417.43228150000004 259.75936889999997 C 417.43228150000004 266.9758301 411.58212280000004 272.82598879999995 404.36566160000007 272.82598879999995 C 400.1946106000001 272.82598879999995 396.5232849000001 270.83538819999995 394.13079830000004 267.7923279 L 332.80288690000003 286.60696409999997 C 332.3262634 293.38973999999996 326.73229970000006 298.7614746 319.8282775 298.7614746 C 313.1401366 298.7614746 307.68869010000003 293.7178955 306.9169005 287.23745729999996 L 259.8444213 275.2633972 C 257.7556457 278.2080688 254.4786376 280.2024536 250.71150200000002 280.6423034 L 236.11599720000004 337.5046081 C 239.44068900000005 339.8734741 241.62588490000005 343.7393798 241.62588490000005 348.13262929999996 C 241.62588490000005 355.34927359999995 235.77590930000005 361.19924919999994 228.55924980000003 361.19924919999994 C 226.02284230000004 361.19924919999994 223.67565910000002 360.44515979999994 221.67153920000004 359.19454949999994 L 185.03727710000004 386.8588560999999 C 189.38798510000004 402.7608335999999 196.24627670000004 417.6278685999999 205.16970810000004 431.00256339999993 L 343.5092162 312.1214903999999 L 408.03659050000005 312.1214903999999 L 465.59317010000007 274.40634149999994 C 456.0913391 256.8570251 443.2310181 241.3963165 427.8859863 228.8635559 z" stroke-linecap="round" />
</g>
		<g transform="matrix(0.447842401165958 0 0 0.447842401165958 73.82936460708436 -37.11089695025285)"  >
<polygon style="stroke: none; stroke-width: 1; stroke-dasharray: none; stroke-linecap: butt; stroke-dashoffset: 0; stroke-linejoin: miter; stroke-miterlimit: 4; fill: rgb(23,37,84); fill-rule: nonzero; opacity: 1;"  paint-order="stroke"  points="-45.30519105000002,-14.32876589999998 45.30519104999996,-39.44079589999998 -12.74574285,39.44079590000001 -17.06205755000002,3.2839356000000066 " />
</g>
		<g transform="matrix(0.447842401165958 0 0 0.447842401165958 -48.16632626991975 25.662112400608095)"  >
<path style="stroke: none; stroke-width: 1; stroke-dasharray: none; stroke-linecap: butt; stroke-dashoffset: 0; stroke-linejoin: miter; stroke-miterlimit: 4; fill: rgb(23,37,84); fill-rule: nonzero; opacity: 1;"  paint-order="stroke"  transform=" translate(-242.44805925, -407.30166625000004)" d="M 297.690155 513.3757935 C 291.8544922 512.1848145 286.1323242 510.6825867 280.5290222 508.9088135 L 280.5290222 405.3008118 L 233.16218569999998 446.0053406 L 233.16218569999998 485.1845703 C 189.93139649999998 454.3132019 161.66641239999998 403.77075190000005 161.66641239999998 346.71844480000004 C 161.66641239999998 321.47900390000007 167.2343445 297.52935790000004 177.14006049999998 275.9688110000001 L 153.41162119999998 275.9688110000001 C 144.68853769999998 297.8789672000001 139.83914199999998 321.7362060000001 139.83914199999998 346.71844480000004 C 139.83914199999998 452.54183960000006 225.93339549999996 538.6345215 331.7568056 538.6345215 C 336.23214740000003 538.6345215 340.6571657 538.4249878 345.0569765 538.1221314000001 L 345.0569765 349.8493347 L 297.69015520000005 390.5536499 L 297.69015520000005 513.3757935 z" stroke-linecap="round" />
</g>
		<g transform="matrix(0.447842401165958 0 0 0.447842401165958 41.62493388227972 31.445543033824293)"  >
<path style="stroke: none; stroke-width: 1; stroke-dasharray: none; stroke-linecap: butt; stroke-dashoffset: 0; stroke-linejoin: miter; stroke-miterlimit: 4; fill: rgb(23,37,84); fill-rule: nonzero; opacity: 1;"  paint-order="stroke"  transform=" translate(-442.94551085, -420.21565254999996)" d="M 523.1578979 333.3830872 L 501.27337639999996 333.3830872 C 501.617218 337.78863529999995 501.8457946 342.22619629999997 501.8457946 346.71844489999995 C 501.8457946 380.9995423 491.63201899999996 412.92395029999994 474.11251819999995 439.65051279999994 L 474.11251819999995 304.23995979999995 L 426.74587999999994 335.27807629999995 L 426.74587999999994 487.65298469999993 C 421.24215689999994 491.3716430999999 415.51919539999994 494.78399669999993 409.5847471999999 497.85028079999995 L 409.5847471999999 341.7442017 L 362.217926 341.7442017 L 362.217926 536.1913453 C 453.612976 521.5502931 523.6730957 442.17498789999996 523.6730957 346.7184449 C 523.6730957 342.2309875 523.4624023 337.7946167 523.1578979 333.3830872 z" stroke-linecap="round" />
</g>
		<g transform="matrix(0.447842401165958 0 0 0.447842401165958 -11.758155759779243 -60.819370702594256)"  >
<path style="stroke: none; stroke-width: 1; stroke-dasharray: none; stroke-linecap: butt; stroke-dashoffset: 0; stroke-linejoin: miter; stroke-miterlimit: 4; fill: rgb(23,37,84); fill-rule: nonzero; opacity: 1;"  paint-order="stroke"  transform=" translate(-323.7448958499999, -214.1947097)" d="M 331.7522278 169.315979 C 390.4548645 169.315979 442.57946780000003 197.9828644 474.8894653 242.0440826 L 483.06436149999996 239.7783813 C 449.4578552 192.3684234 394.1588134 161.3654937 331.75222769999993 161.3654937 C 258.06015009999993 161.3654937 194.28051749999995 204.5952758 164.42543019999994 267.0239257 L 173.28724659999995 267.0239257 C 202.5275574 209.120697 262.5750122 169.315979 331.7522278 169.315979 z" stroke-linecap="round" />
</g>
</g>
</g>
</svg>