<svg xmlns="http://www.w3.org/2000/svg" viewBox="-20 -20 1130 1130">
<rect x="-20" y="-20" width="1130" height="1130" fill="#ffffff"/>
<path fill="#67B3E9" d="M 271.02 540.82 C 271.02 525.03 282.96 512.15 298.27 510.37 L 332.7 376.25 C 324.86 370.67 319.7 361.55 319.7 351.19 C 319.7 334.17 333.5 320.37 350.52 320.37 C 366.29 320.37 379.15 332.27 380.97 347.55 L 491.99 375.79 C 497.57 367.92 506.71 362.75 517.1 362.75 C 526.94 362.75 535.59 367.44 541.24 374.62 L 685.88 330.24 C 687.0 314.25 700.2 301.58 716.48 301.58 C 718.18 301.58 719.83 301.81 721.45 302.08 L 754.3 246.01 C 695.43 203.71 623.26 178.76 545.23 178.76 C 347.11 178.76 186.51 339.37 186.51 537.49 C 186.51 561.88 189.0 585.68 193.65 608.7 L 272.34 549.28 C 271.57 546.57 271.02 543.78 271.02 540.82 z"/>
<path fill="#3298E2" d="M 771.95 259.53 L 740.47 313.27 C 744.68 318.54 747.3 325.13 747.3 332.39 C 747.3 349.41 733.5 363.21 716.48 363.21 C 706.64 363.21 697.98 358.52 692.34 351.34 L 547.7 395.71 C 546.58 411.71 533.38 424.38 517.1 424.38 C 501.32 424.38 488.47 412.49 486.65 397.2 L 375.63 368.96 C 370.7 375.91 362.97 380.61 354.09 381.65 L 319.66 515.76 C 327.5 521.34 332.66 530.46 332.66 540.82 C 332.66 557.84 318.86 571.64 301.84 571.64 C 295.86 571.64 290.32 569.86 285.6 566.91 L 199.19 632.16 C 209.45 669.66 225.63 704.73 246.68 736.27 L 572.95 455.89 L 725.14 455.89 L 860.89 366.94 C 838.48 325.55 808.14 289.09 771.95 259.53 z"/>
<polygon fill="#172554" points="870.22,315.99 1083.92,256.77 947.01,442.81 936.83,357.53"/>
<path fill="#172554" d="M 464.89 930.55 C 451.12 927.74 437.63 924.2 424.41 920.01 L 424.41 675.65 L 312.7 771.66 L 312.7 864.06 C 210.74 791.25 144.07 672.05 144.07 537.49 C 144.07 477.96 157.21 421.48 180.57 370.62 L 124.6 370.62 C 104.03 422.3 92.59 478.57 92.59 537.49 C 92.59 787.07 295.65 990.12 545.23 990.12 C 555.79 990.12 566.22 989.63 576.6 988.91 L 576.6 544.87 L 464.89 640.87 L 464.89 930.55 z"/>
<path fill="#172554" d="M 996.65 506.04 L 945.04 506.04 C 945.85 516.43 946.39 526.89 946.39 537.49 C 946.39 618.34 922.3 693.63 880.98 756.67 L 880.98 437.3 L 769.26 510.51 L 769.26 869.88 C 756.28 878.65 742.79 886.7 728.79 893.93 L 728.79 525.76 L 617.07 525.76 L 617.07 984.36 C 832.63 949.83 997.87 762.62 997.87 537.49 C 997.87 526.9 997.37 516.44 996.65 506.04 z"/>
<path fill="#172554" d="M 545.22 119.08 C 683.67 119.08 806.61 186.69 882.81 290.61 L 902.09 285.27 C 822.83 173.45 692.41 100.33 545.22 100.33 C 371.42 100.33 220.99 202.29 150.58 349.53 L 171.48 349.53 C 240.44 212.96 382.07 119.08 545.22 119.08 z"/>
</svg>
