<?xml version="1.0" encoding="utf-8" standalone="no"?>
<!DOCTYPE svg PUBLIC "-//W3C//DTD SVG 1.1//EN"
  "http://www.w3.org/Graphics/SVG/1.1/DTD/svg11.dtd">
<svg xmlns:xlink="http://www.w3.org/1999/xlink" width="676.717031pt" height="329.588437pt" viewBox="0 0 676.717031 329.588437" xmlns="http://www.w3.org/2000/svg" version="1.1">
 <metadata>
  <rdf:RDF xmlns:dc="http://purl.org/dc/elements/1.1/" xmlns:cc="http://creativecommons.org/ns#" xmlns:rdf="http://www.w3.org/1999/02/22-rdf-syntax-ns#">
   <cc:Work>
    <dc:type rdf:resource="http://purl.org/dc/dcmitype/StillImage"/>
    <dc:date>2026-04-19T15:50:14.532667</dc:date>
    <dc:format>image/svg+xml</dc:format>
    <dc:creator>
     <cc:Agent>
      <dc:title>Matplotlib v3.9.4, https://matplotlib.org/</dc:title>
     </cc:Agent>
    </dc:creator>
   </cc:Work>
  </rdf:RDF>
 </metadata>
 <defs>
  <style type="text/css">*{stroke-linejoin: round; stroke-linecap: butt}</style>
 </defs>
 <g id="figure_1">
  <g id="patch_1">
   <path d="M 0 329.588437 
L 676.717031 329.588437 
L 676.717031 0 
L 0 0 
z
" style="fill: #ffffff"/>
  </g>
  <g id="axes_1">
   <g id="patch_2">
    <path d="M 43.007031 306.678125 
L 669.517031 306.678125 
L 669.517031 31.318125 
L 43.007031 31.318125 
z
" style="fill: #fafafa"/>
   </g>
   <g id="PolyCollection_1">
    <defs>
     <path id="mdeb820b5b8" d="M 71.484759 -35.426676 
L 71.484759 -87.082484 
L 75.611965 -91.209783 
L 79.739172 -105.250391 
L 83.866379 -121.980153 
L 87.993586 -113.973957 
L 92.120793 -115.050054 
L 96.248 -107.724703 
L 100.375206 -109.156204 
L 104.502413 -108.839167 
L 108.62962 -114.249668 
L 112.756827 -109.859227 
L 116.884034 -111.935896 
L 121.011241 -107.123466 
L 125.138448 -105.68236 
L 129.265654 -108.302897 
L 133.392861 -112.945113 
L 137.520068 -121.185322 
L 141.647275 -120.413495 
L 145.774482 -125.444714 
L 149.901689 -129.873602 
L 154.028896 -126.020167 
L 158.156102 -133.35824 
L 162.283309 -139.332065 
L 166.410516 -128.318094 
L 170.537723 -127.853637 
L 174.66493 -126.494961 
L 178.792137 -130.328935 
L 182.919344 -128.914892 
L 187.04655 -123.417785 
L 191.173757 -126.075116 
L 195.300964 -126.664331 
L 199.428171 -126.664331 
L 203.555378 -129.282852 
L 207.682585 -130.446668 
L 211.809791 -130.446668 
L 215.936998 -130.446668 
L 220.064205 -130.446668 
L 224.191412 -130.446668 
L 228.318619 -130.446668 
L 232.445826 -130.446668 
L 236.573033 -130.446668 
L 240.700239 -130.446668 
L 244.827446 -130.446668 
L 248.954653 -130.446668 
L 253.08186 -130.446668 
L 257.209067 -130.446668 
L 261.336274 -130.446668 
L 265.463481 -130.446668 
L 269.590687 -130.446668 
L 273.717894 -130.446668 
L 277.845101 -129.952564 
L 281.972308 -129.952564 
L 286.099515 -129.952564 
L 290.226722 -129.952564 
L 294.353928 -129.432672 
L 298.481135 -127.665359 
L 302.608342 -127.139599 
L 306.735549 -126.057386 
L 310.862756 -123.429096 
L 314.989963 -125.365149 
L 319.11717 -123.161656 
L 323.244376 -133.356461 
L 327.371583 -133.767766 
L 331.49879 -137.848921 
L 335.625997 -140.481173 
L 339.753204 -142.592768 
L 343.880411 -149.1299 
L 348.007618 -155.201652 
L 352.134824 -155.141765 
L 356.262031 -155.213594 
L 360.389238 -160.017049 
L 364.516445 -151.046542 
L 368.643652 -147.497012 
L 372.770859 -142.801265 
L 376.898066 -141.64162 
L 381.025272 -146.516886 
L 385.152479 -149.882919 
L 389.279686 -156.31536 
L 393.406893 -156.726381 
L 397.5341 -158.266888 
L 401.661307 -159.98665 
L 405.788513 -168.967425 
L 409.91572 -166.082944 
L 414.042927 -164.580397 
L 418.170134 -175.610125 
L 422.297341 -170.577539 
L 426.424548 -156.832697 
L 430.551755 -162.162421 
L 434.678961 -170.412918 
L 438.806168 -157.130272 
L 442.933375 -157.531894 
L 447.060582 -146.127266 
L 451.187789 -146.691839 
L 455.314996 -138.747507 
L 459.442203 -132.951208 
L 463.569409 -137.505604 
L 467.696616 -138.322235 
L 471.823823 -137.540229 
L 475.95103 -134.129636 
L 480.078237 -134.810687 
L 484.205444 -138.318942 
L 488.33265 -154.9772 
L 492.459857 -163.381602 
L 496.587064 -162.754623 
L 500.714271 -158.234481 
L 504.841478 -153.555503 
L 508.968685 -154.654101 
L 513.095892 -161.891206 
L 517.223098 -152.444306 
L 521.350305 -149.998637 
L 525.477512 -149.998637 
L 529.604719 -148.589402 
L 533.731926 -148.589402 
L 537.859133 -148.589402 
L 541.98634 -150.603699 
L 546.113546 -147.724273 
L 550.240753 -151.250418 
L 554.36796 -153.833287 
L 558.495167 -155.052875 
L 562.622374 -157.76839 
L 566.749581 -159.738091 
L 570.876788 -155.03912 
L 575.003994 -160.2303 
L 579.131201 -185.02878 
L 583.258408 -190.623899 
L 587.385615 -210.752979 
L 591.512822 -216.994595 
L 595.640029 -207.008359 
L 599.767235 -213.75152 
L 603.894442 -215.392108 
L 608.021649 -215.698049 
L 612.148856 -230.985062 
L 616.276063 -240.137194 
L 620.40327 -246.544633 
L 624.530477 -258.557245 
L 628.657683 -265.407354 
L 632.78489 -274.905556 
L 636.912097 -274.905556 
L 641.039304 -285.753949 
L 641.039304 -35.426676 
L 641.039304 -35.426676 
L 636.912097 -35.426676 
L 632.78489 -35.426676 
L 628.657683 -35.426676 
L 624.530477 -35.426676 
L 620.40327 -35.426676 
L 616.276063 -35.426676 
L 612.148856 -35.426676 
L 608.021649 -35.426676 
L 603.894442 -35.426676 
L 599.767235 -35.426676 
L 595.640029 -35.426676 
L 591.512822 -35.426676 
L 587.385615 -35.426676 
L 583.258408 -35.426676 
L 579.131201 -35.426676 
L 575.003994 -35.426676 
L 570.876788 -35.426676 
L 566.749581 -35.426676 
L 562.622374 -35.426676 
L 558.495167 -35.426676 
L 554.36796 -35.426676 
L 550.240753 -35.426676 
L 546.113546 -35.426676 
L 541.98634 -35.426676 
L 537.859133 -35.426676 
L 533.731926 -35.426676 
L 529.604719 -35.426676 
L 525.477512 -35.426676 
L 521.350305 -35.426676 
L 517.223098 -35.426676 
L 513.095892 -35.426676 
L 508.968685 -35.426676 
L 504.841478 -35.426676 
L 500.714271 -35.426676 
L 496.587064 -35.426676 
L 492.459857 -35.426676 
L 488.33265 -35.426676 
L 484.205444 -35.426676 
L 480.078237 -35.426676 
L 475.95103 -35.426676 
L 471.823823 -35.426676 
L 467.696616 -35.426676 
L 463.569409 -35.426676 
L 459.442203 -35.426676 
L 455.314996 -35.426676 
L 451.187789 -35.426676 
L 447.060582 -35.426676 
L 442.933375 -35.426676 
L 438.806168 -35.426676 
L 434.678961 -35.426676 
L 430.551755 -35.426676 
L 426.424548 -35.426676 
L 422.297341 -35.426676 
L 418.170134 -35.426676 
L 414.042927 -35.426676 
L 409.91572 -35.426676 
L 405.788513 -35.426676 
L 401.661307 -35.426676 
L 397.5341 -35.426676 
L 393.406893 -35.426676 
L 389.279686 -35.426676 
L 385.152479 -35.426676 
L 381.025272 -35.426676 
L 376.898066 -35.426676 
L 372.770859 -35.426676 
L 368.643652 -35.426676 
L 364.516445 -35.426676 
L 360.389238 -35.426676 
L 356.262031 -35.426676 
L 352.134824 -35.426676 
L 348.007618 -35.426676 
L 343.880411 -35.426676 
L 339.753204 -35.426676 
L 335.625997 -35.426676 
L 331.49879 -35.426676 
L 327.371583 -35.426676 
L 323.244376 -35.426676 
L 319.11717 -35.426676 
L 314.989963 -35.426676 
L 310.862756 -35.426676 
L 306.735549 -35.426676 
L 302.608342 -35.426676 
L 298.481135 -35.426676 
L 294.353928 -35.426676 
L 290.226722 -35.426676 
L 286.099515 -35.426676 
L 281.972308 -35.426676 
L 277.845101 -35.426676 
L 273.717894 -35.426676 
L 269.590687 -35.426676 
L 265.463481 -35.426676 
L 261.336274 -35.426676 
L 257.209067 -35.426676 
L 253.08186 -35.426676 
L 248.954653 -35.426676 
L 244.827446 -35.426676 
L 240.700239 -35.426676 
L 236.573033 -35.426676 
L 232.445826 -35.426676 
L 228.318619 -35.426676 
L 224.191412 -35.426676 
L 220.064205 -35.426676 
L 215.936998 -35.426676 
L 211.809791 -35.426676 
L 207.682585 -35.426676 
L 203.555378 -35.426676 
L 199.428171 -35.426676 
L 195.300964 -35.426676 
L 191.173757 -35.426676 
L 187.04655 -35.426676 
L 182.919344 -35.426676 
L 178.792137 -35.426676 
L 174.66493 -35.426676 
L 170.537723 -35.426676 
L 166.410516 -35.426676 
L 162.283309 -35.426676 
L 158.156102 -35.426676 
L 154.028896 -35.426676 
L 149.901689 -35.426676 
L 145.774482 -35.426676 
L 141.647275 -35.426676 
L 137.520068 -35.426676 
L 133.392861 -35.426676 
L 129.265654 -35.426676 
L 125.138448 -35.426676 
L 121.011241 -35.426676 
L 116.884034 -35.426676 
L 112.756827 -35.426676 
L 108.62962 -35.426676 
L 104.502413 -35.426676 
L 100.375206 -35.426676 
L 96.248 -35.426676 
L 92.120793 -35.426676 
L 87.993586 -35.426676 
L 83.866379 -35.426676 
L 79.739172 -35.426676 
L 75.611965 -35.426676 
L 71.484759 -35.426676 
z
" style="stroke: #172554; stroke-opacity: 0.08"/>
    </defs>
    <g clip-path="url(#p8c3242ffd9)">
     <use xlink:href="#mdeb820b5b8" x="0" y="329.588437" style="fill: #172554; fill-opacity: 0.08; stroke: #172554; stroke-opacity: 0.08"/>
    </g>
   </g>
   <g id="matplotlib.axis_1">
    <g id="xtick_1">
     <g id="line2d_1">
      <defs>
       <path id="m9882128b18" d="M 0 0 
L 0 3.5 
" style="stroke: #000000; stroke-width: 0.8"/>
      </defs>
      <g>
       <use xlink:href="#m9882128b18" x="71.484759" y="306.678125" style="stroke: #000000; stroke-width: 0.8"/>
      </g>
     </g>
     <g id="text_1">
      <!-- 2021 -->
      <g style="fill: #6b7280" transform="translate(60.032259 320.516719) scale(0.09 -0.09)">
       <defs>
        <path id="DejaVuSans-32" d="M 1228 531 
L 3431 531 
L 3431 0 
L 469 0 
L 469 531 
Q 828 903 1448 1529 
Q 2069 2156 2228 2338 
Q 2531 2678 2651 2914 
Q 2772 3150 2772 3378 
Q 2772 3750 2511 3984 
Q 2250 4219 1831 4219 
Q 1534 4219 1204 4116 
Q 875 4013 500 3803 
L 500 4441 
Q 881 4594 1212 4672 
Q 1544 4750 1819 4750 
Q 2544 4750 2975 4387 
Q 3406 4025 3406 3419 
Q 3406 3131 3298 2873 
Q 3191 2616 2906 2266 
Q 2828 2175 2409 1742 
Q 1991 1309 1228 531 
z
" transform="scale(0.015625)"/>
        <path id="DejaVuSans-30" d="M 2034 4250 
Q 1547 4250 1301 3770 
Q 1056 3291 1056 2328 
Q 1056 1369 1301 889 
Q 1547 409 2034 409 
Q 2525 409 2770 889 
Q 3016 1369 3016 2328 
Q 3016 3291 2770 3770 
Q 2525 4250 2034 4250 
z
M 2034 4750 
Q 2819 4750 3233 4129 
Q 3647 3509 3647 2328 
Q 3647 1150 3233 529 
Q 2819 -91 2034 -91 
Q 1250 -91 836 529 
Q 422 1150 422 2328 
Q 422 3509 836 4129 
Q 1250 4750 2034 4750 
z
" transform="scale(0.015625)"/>
        <path id="DejaVuSans-31" d="M 794 531 
L 1825 531 
L 1825 4091 
L 703 3866 
L 703 4441 
L 1819 4666 
L 2450 4666 
L 2450 531 
L 3481 531 
L 3481 0 
L 794 0 
L 794 531 
z
" transform="scale(0.015625)"/>
       </defs>
       <use xlink:href="#DejaVuSans-32"/>
       <use xlink:href="#DejaVuSans-30" x="63.623047"/>
       <use xlink:href="#DejaVuSans-32" x="127.246094"/>
       <use xlink:href="#DejaVuSans-31" x="190.869141"/>
      </g>
     </g>
    </g>
    <g id="xtick_2">
     <g id="line2d_2">
      <g>
       <use xlink:href="#m9882128b18" x="178.792137" y="306.678125" style="stroke: #000000; stroke-width: 0.8"/>
      </g>
     </g>
     <g id="text_2">
      <!-- 2022 -->
      <g style="fill: #6b7280" transform="translate(167.339637 320.516719) scale(0.09 -0.09)">
       <use xlink:href="#DejaVuSans-32"/>
       <use xlink:href="#DejaVuSans-30" x="63.623047"/>
       <use xlink:href="#DejaVuSans-32" x="127.246094"/>
       <use xlink:href="#DejaVuSans-32" x="190.869141"/>
      </g>
     </g>
    </g>
    <g id="xtick_3">
     <g id="line2d_3">
      <g>
       <use xlink:href="#m9882128b18" x="286.099515" y="306.678125" style="stroke: #000000; stroke-width: 0.8"/>
      </g>
     </g>
     <g id="text_3">
      <!-- 2023 -->
      <g style="fill: #6b7280" transform="translate(274.647015 320.516719) scale(0.09 -0.09)">
       <defs>
        <path id="DejaVuSans-33" d="M 2597 2516 
Q 3050 2419 3304 2112 
Q 3559 1806 3559 1356 
Q 3559 666 3084 287 
Q 2609 -91 1734 -91 
Q 1441 -91 1130 -33 
Q 819 25 488 141 
L 488 750 
Q 750 597 1062 519 
Q 1375 441 1716 441 
Q 2309 441 2620 675 
Q 2931 909 2931 1356 
Q 2931 1769 2642 2001 
Q 2353 2234 1838 2234 
L 1294 2234 
L 1294 2753 
L 1863 2753 
Q 2328 2753 2575 2939 
Q 2822 3125 2822 3475 
Q 2822 3834 2567 4026 
Q 2313 4219 1838 4219 
Q 1578 4219 1281 4162 
Q 984 4106 628 3988 
L 628 4550 
Q 988 4650 1302 4700 
Q 1616 4750 1894 4750 
Q 2613 4750 3031 4423 
Q 3450 4097 3450 3541 
Q 3450 3153 3228 2886 
Q 3006 2619 2597 2516 
z
" transform="scale(0.015625)"/>
       </defs>
       <use xlink:href="#DejaVuSans-32"/>
       <use xlink:href="#DejaVuSans-30" x="63.623047"/>
       <use xlink:href="#DejaVuSans-32" x="127.246094"/>
       <use xlink:href="#DejaVuSans-33" x="190.869141"/>
      </g>
     </g>
    </g>
    <g id="xtick_4">
     <g id="line2d_4">
      <g>
       <use xlink:href="#m9882128b18" x="393.406893" y="306.678125" style="stroke: #000000; stroke-width: 0.8"/>
      </g>
     </g>
     <g id="text_4">
      <!-- 2024 -->
      <g style="fill: #6b7280" transform="translate(381.954393 320.516719) scale(0.09 -0.09)">
       <defs>
        <path id="DejaVuSans-34" d="M 2419 4116 
L 825 1625 
L 2419 1625 
L 2419 4116 
z
M 2253 4666 
L 3047 4666 
L 3047 1625 
L 3713 1625 
L 3713 1100 
L 3047 1100 
L 3047 0 
L 2419 0 
L 2419 1100 
L 313 1100 
L 313 1709 
L 2253 4666 
z
" transform="scale(0.015625)"/>
       </defs>
       <use xlink:href="#DejaVuSans-32"/>
       <use xlink:href="#DejaVuSans-30" x="63.623047"/>
       <use xlink:href="#DejaVuSans-32" x="127.246094"/>
       <use xlink:href="#DejaVuSans-34" x="190.869141"/>
      </g>
     </g>
    </g>
    <g id="xtick_5">
     <g id="line2d_5">
      <g>
       <use xlink:href="#m9882128b18" x="504.841478" y="306.678125" style="stroke: #000000; stroke-width: 0.8"/>
      </g>
     </g>
     <g id="text_5">
      <!-- 2025 -->
      <g style="fill: #6b7280" transform="translate(493.388978 320.516719) scale(0.09 -0.09)">
       <defs>
        <path id="DejaVuSans-35" d="M 691 4666 
L 3169 4666 
L 3169 4134 
L 1269 4134 
L 1269 2991 
Q 1406 3038 1543 3061 
Q 1681 3084 1819 3084 
Q 2600 3084 3056 2656 
Q 3513 2228 3513 1497 
Q 3513 744 3044 326 
Q 2575 -91 1722 -91 
Q 1428 -91 1123 -41 
Q 819 9 494 109 
L 494 744 
Q 775 591 1075 516 
Q 1375 441 1709 441 
Q 2250 441 2565 725 
Q 2881 1009 2881 1497 
Q 2881 1984 2565 2268 
Q 2250 2553 1709 2553 
Q 1456 2553 1204 2497 
Q 953 2441 691 2322 
L 691 4666 
z
" transform="scale(0.015625)"/>
       </defs>
       <use xlink:href="#DejaVuSans-32"/>
       <use xlink:href="#DejaVuSans-30" x="63.623047"/>
       <use xlink:href="#DejaVuSans-32" x="127.246094"/>
       <use xlink:href="#DejaVuSans-35" x="190.869141"/>
      </g>
     </g>
    </g>
    <g id="xtick_6">
     <g id="line2d_6">
      <g>
       <use xlink:href="#m9882128b18" x="612.148856" y="306.678125" style="stroke: #000000; stroke-width: 0.8"/>
      </g>
     </g>
     <g id="text_6">
      <!-- 2026 -->
      <g style="fill: #6b7280" transform="translate(600.696356 320.516719) scale(0.09 -0.09)">
       <defs>
        <path id="DejaVuSans-36" d="M 2113 2584 
Q 1688 2584 1439 2293 
Q 1191 2003 1191 1497 
Q 1191 994 1439 701 
Q 1688 409 2113 409 
Q 2538 409 2786 701 
Q 3034 994 3034 1497 
Q 3034 2003 2786 2293 
Q 2538 2584 2113 2584 
z
M 3366 4563 
L 3366 3988 
Q 3128 4100 2886 4159 
Q 2644 4219 2406 4219 
Q 1781 4219 1451 3797 
Q 1122 3375 1075 2522 
Q 1259 2794 1537 2939 
Q 1816 3084 2150 3084 
Q 2853 3084 3261 2657 
Q 3669 2231 3669 1497 
Q 3669 778 3244 343 
Q 2819 -91 2113 -91 
Q 1303 -91 875 529 
Q 447 1150 447 2328 
Q 447 3434 972 4092 
Q 1497 4750 2381 4750 
Q 2619 4750 2861 4703 
Q 3103 4656 3366 4563 
z
" transform="scale(0.015625)"/>
       </defs>
       <use xlink:href="#DejaVuSans-32"/>
       <use xlink:href="#DejaVuSans-30" x="63.623047"/>
       <use xlink:href="#DejaVuSans-32" x="127.246094"/>
       <use xlink:href="#DejaVuSans-36" x="190.869141"/>
      </g>
     </g>
    </g>
   </g>
   <g id="matplotlib.axis_2">
    <g id="ytick_1">
     <g id="line2d_7">
      <path d="M 43.007031 294.161761 
L 669.517031 294.161761 
" clip-path="url(#p8c3242ffd9)" style="fill: none; stroke: #b0b0b0; stroke-opacity: 0.3; stroke-width: 0.5; stroke-linecap: square"/>
     </g>
     <g id="line2d_8">
      <defs>
       <path id="m28d5d4bb9d" d="M 0 0 
L -3.5 0 
" style="stroke: #6b7280; stroke-width: 0.8"/>
      </defs>
      <g>
       <use xlink:href="#m28d5d4bb9d" x="43.007031" y="294.161761" style="fill: #6b7280; stroke: #6b7280; stroke-width: 0.8"/>
      </g>
     </g>
     <g id="text_7">
      <!-- $0K -->
      <g style="fill: #6b7280" transform="translate(18.6525 297.581058) scale(0.09 -0.09)">
       <defs>
        <path id="DejaVuSans-24" d="M 2163 -941 
L 1850 -941 
L 1847 0 
Q 1519 6 1191 76 
Q 863 147 531 288 
L 531 850 
Q 850 650 1176 548 
Q 1503 447 1850 444 
L 1850 1869 
Q 1159 1981 845 2250 
Q 531 2519 531 2988 
Q 531 3497 872 3790 
Q 1213 4084 1850 4128 
L 1850 4863 
L 2163 4863 
L 2163 4138 
Q 2453 4125 2725 4076 
Q 2997 4028 3256 3944 
L 3256 3397 
Q 2997 3528 2723 3600 
Q 2450 3672 2163 3684 
L 2163 2350 
Q 2872 2241 3206 1959 
Q 3541 1678 3541 1191 
Q 3541 663 3186 358 
Q 2831 53 2163 6 
L 2163 -941 
z
M 1850 2406 
L 1850 3688 
Q 1488 3647 1297 3481 
Q 1106 3316 1106 3041 
Q 1106 2772 1282 2622 
Q 1459 2472 1850 2406 
z
M 2163 1806 
L 2163 453 
Q 2559 506 2761 678 
Q 2963 850 2963 1131 
Q 2963 1406 2770 1568 
Q 2578 1731 2163 1806 
z
" transform="scale(0.015625)"/>
        <path id="DejaVuSans-4b" d="M 628 4666 
L 1259 4666 
L 1259 2694 
L 3353 4666 
L 4166 4666 
L 1850 2491 
L 4331 0 
L 3500 0 
L 1259 2247 
L 1259 0 
L 628 0 
L 628 4666 
z
" transform="scale(0.015625)"/>
       </defs>
       <use xlink:href="#DejaVuSans-24"/>
       <use xlink:href="#DejaVuSans-30" x="63.623047"/>
       <use xlink:href="#DejaVuSans-4b" x="127.246094"/>
      </g>
     </g>
    </g>
    <g id="ytick_2">
     <g id="line2d_9">
      <path d="M 43.007031 242.505953 
L 669.517031 242.505953 
" clip-path="url(#p8c3242ffd9)" style="fill: none; stroke: #b0b0b0; stroke-opacity: 0.3; stroke-width: 0.5; stroke-linecap: square"/>
     </g>
     <g id="line2d_10">
      <g>
       <use xlink:href="#m28d5d4bb9d" x="43.007031" y="242.505953" style="fill: #6b7280; stroke: #6b7280; stroke-width: 0.8"/>
      </g>
     </g>
     <g id="text_8">
      <!-- $100K -->
      <g style="fill: #6b7280" transform="translate(7.2 245.92525) scale(0.09 -0.09)">
       <use xlink:href="#DejaVuSans-24"/>
       <use xlink:href="#DejaVuSans-31" x="63.623047"/>
       <use xlink:href="#DejaVuSans-30" x="127.246094"/>
       <use xlink:href="#DejaVuSans-30" x="190.869141"/>
       <use xlink:href="#DejaVuSans-4b" x="254.492188"/>
      </g>
     </g>
    </g>
    <g id="ytick_3">
     <g id="line2d_11">
      <path d="M 43.007031 190.850146 
L 669.517031 190.850146 
" clip-path="url(#p8c3242ffd9)" style="fill: none; stroke: #b0b0b0; stroke-opacity: 0.3; stroke-width: 0.5; stroke-linecap: square"/>
     </g>
     <g id="line2d_12">
      <g>
       <use xlink:href="#m28d5d4bb9d" x="43.007031" y="190.850146" style="fill: #6b7280; stroke: #6b7280; stroke-width: 0.8"/>
      </g>
     </g>
     <g id="text_9">
      <!-- $200K -->
      <g style="fill: #6b7280" transform="translate(7.2 194.269442) scale(0.09 -0.09)">
       <use xlink:href="#DejaVuSans-24"/>
       <use xlink:href="#DejaVuSans-32" x="63.623047"/>
       <use xlink:href="#DejaVuSans-30" x="127.246094"/>
       <use xlink:href="#DejaVuSans-30" x="190.869141"/>
       <use xlink:href="#DejaVuSans-4b" x="254.492188"/>
      </g>
     </g>
    </g>
    <g id="ytick_4">
     <g id="line2d_13">
      <path d="M 43.007031 139.194338 
L 669.517031 139.194338 
" clip-path="url(#p8c3242ffd9)" style="fill: none; stroke: #b0b0b0; stroke-opacity: 0.3; stroke-width: 0.5; stroke-linecap: square"/>
     </g>
     <g id="line2d_14">
      <g>
       <use xlink:href="#m28d5d4bb9d" x="43.007031" y="139.194338" style="fill: #6b7280; stroke: #6b7280; stroke-width: 0.8"/>
      </g>
     </g>
     <g id="text_10">
      <!-- $300K -->
      <g style="fill: #6b7280" transform="translate(7.2 142.613635) scale(0.09 -0.09)">
       <use xlink:href="#DejaVuSans-24"/>
       <use xlink:href="#DejaVuSans-33" x="63.623047"/>
       <use xlink:href="#DejaVuSans-30" x="127.246094"/>
       <use xlink:href="#DejaVuSans-30" x="190.869141"/>
       <use xlink:href="#DejaVuSans-4b" x="254.492188"/>
      </g>
     </g>
    </g>
    <g id="ytick_5">
     <g id="line2d_15">
      <path d="M 43.007031 87.53853 
L 669.517031 87.53853 
" clip-path="url(#p8c3242ffd9)" style="fill: none; stroke: #b0b0b0; stroke-opacity: 0.3; stroke-width: 0.5; stroke-linecap: square"/>
     </g>
     <g id="line2d_16">
      <g>
       <use xlink:href="#m28d5d4bb9d" x="43.007031" y="87.53853" style="fill: #6b7280; stroke: #6b7280; stroke-width: 0.8"/>
      </g>
     </g>
     <g id="text_11">
      <!-- $400K -->
      <g style="fill: #6b7280" transform="translate(7.2 90.957827) scale(0.09 -0.09)">
       <use xlink:href="#DejaVuSans-24"/>
       <use xlink:href="#DejaVuSans-34" x="63.623047"/>
       <use xlink:href="#DejaVuSans-30" x="127.246094"/>
       <use xlink:href="#DejaVuSans-30" x="190.869141"/>
       <use xlink:href="#DejaVuSans-4b" x="254.492188"/>
      </g>
     </g>
    </g>
    <g id="ytick_6">
     <g id="line2d_17">
      <path d="M 43.007031 35.882722 
L 669.517031 35.882722 
" clip-path="url(#p8c3242ffd9)" style="fill: none; stroke: #b0b0b0; stroke-opacity: 0.3; stroke-width: 0.5; stroke-linecap: square"/>
     </g>
     <g id="line2d_18">
      <g>
       <use xlink:href="#m28d5d4bb9d" x="43.007031" y="35.882722" style="fill: #6b7280; stroke: #6b7280; stroke-width: 0.8"/>
      </g>
     </g>
     <g id="text_12">
      <!-- $500K -->
      <g style="fill: #6b7280" transform="translate(7.2 39.302019) scale(0.09 -0.09)">
       <use xlink:href="#DejaVuSans-24"/>
       <use xlink:href="#DejaVuSans-35" x="63.623047"/>
       <use xlink:href="#DejaVuSans-30" x="127.246094"/>
       <use xlink:href="#DejaVuSans-30" x="190.869141"/>
       <use xlink:href="#DejaVuSans-4b" x="254.492188"/>
      </g>
     </g>
    </g>
   </g>
   <g id="line2d_19">
    <path d="M 71.484759 242.505953 
L 75.611965 241.567953 
L 79.739172 241.518953 
L 83.866379 239.179553 
L 87.993586 239.641553 
L 92.120793 238.654553 
L 96.248 238.755353 
L 100.375206 236.532153 
L 104.502413 235.696352 
L 108.62962 235.650152 
L 112.756827 235.477952 
L 116.884034 235.045352 
L 121.011241 235.241352 
L 125.138448 233.440952 
L 129.265654 234.665952 
L 133.392861 232.899152 
L 137.520068 231.585952 
L 141.647275 230.849552 
L 145.774482 231.640552 
L 149.901689 232.192152 
L 154.028896 233.305152 
L 158.156102 230.384752 
L 162.283309 228.511551 
L 166.410516 228.701951 
L 170.537723 229.931152 
L 174.66493 230.464552 
L 178.792137 227.282351 
L 182.919344 229.100951 
L 187.04655 231.174352 
L 191.173757 232.698952 
L 195.300964 233.033552 
L 199.428171 235.781752 
L 203.555378 230.344152 
L 207.682585 232.572952 
L 211.809791 234.170352 
L 215.936998 238.417953 
L 220.064205 238.592953 
L 224.191412 236.511153 
L 228.318619 242.941354 
L 232.445826 240.788153 
L 236.573033 240.688753 
L 240.700239 236.653953 
L 244.827446 234.121352 
L 248.954653 237.793553 
L 253.08186 236.625953 
L 257.209067 243.158354 
L 261.336274 243.758954 
L 265.463481 241.119953 
L 269.590687 240.968753 
L 273.717894 238.919153 
L 277.845101 238.219153 
L 281.972308 240.958953 
L 286.099515 240.621553 
L 290.226722 238.371753 
L 294.353928 238.079153 
L 298.481135 236.365553 
L 302.608342 238.479553 
L 306.735549 240.211353 
L 310.862756 238.653153 
L 314.989963 236.816353 
L 319.11717 236.393553 
L 323.244376 236.378153 
L 327.371583 235.531152 
L 331.49879 234.367752 
L 335.625997 232.637352 
L 339.753204 232.031152 
L 348.007618 230.071152 
L 352.134824 231.426352 
L 356.262031 232.175352 
L 360.389238 231.378752 
L 364.516445 233.649552 
L 368.643652 233.641152 
L 372.770859 235.297352 
L 376.898066 233.165152 
L 381.025272 230.565352 
L 385.152479 230.225152 
L 389.279686 228.085951 
L 393.406893 227.618351 
L 397.5341 227.426551 
L 401.661307 225.383951 
L 405.788513 224.024551 
L 414.042927 222.58255 
L 418.170134 221.39395 
L 422.297341 221.54095 
L 426.424548 224.200951 
L 430.551755 221.84195 
L 434.678961 219.95335 
L 438.806168 220.26975 
L 442.933375 217.56775 
L 447.060582 217.81415 
L 451.187789 215.547549 
L 455.314996 217.89535 
L 459.442203 219.50395 
L 463.569409 215.651149 
L 467.696616 217.66435 
L 471.823823 214.407949 
L 475.95103 214.669749 
L 480.078237 212.453549 
L 484.205444 214.388349 
L 488.33265 211.820749 
L 492.459857 209.653548 
L 496.587064 209.211148 
L 500.714271 211.810949 
L 504.841478 212.767149 
L 508.968685 210.249949 
L 513.095892 209.482748 
L 517.223098 210.552349 
L 521.350305 215.680549 
L 525.477512 213.790549 
L 529.604719 223.548551 
L 533.731926 222.21855 
L 537.859133 215.270349 
L 541.98634 210.882749 
L 546.113546 211.182349 
L 550.240753 209.786549 
L 554.36796 207.662748 
L 558.495167 206.688348 
L 562.622374 204.990148 
L 566.749581 205.132948 
L 575.003994 203.325548 
L 579.131201 200.804147 
L 583.258408 200.136347 
L 587.385615 200.179747 
L 591.512822 198.494147 
L 595.640029 200.967947 
L 599.767235 198.923947 
L 603.894442 198.859547 
L 612.148856 196.839347 
L 616.276063 197.179547 
L 620.40327 197.008747 
L 624.530477 198.627147 
L 628.657683 199.203947 
L 632.78489 202.408547 
L 636.912097 201.911547 
L 641.039304 198.107747 
L 641.039304 198.107747 
" clip-path="url(#p8c3242ffd9)" style="fill: none; stroke-dasharray: 6.66,2.88; stroke-dashoffset: 0; stroke: #9ca3af; stroke-width: 1.8"/>
   </g>
   <g id="patch_3">
    <path d="M 43.007031 306.678125 
L 43.007031 31.318125 
" style="fill: none; stroke: #e5e7eb; stroke-width: 0.8; stroke-linejoin: miter; stroke-linecap: square"/>
   </g>
   <g id="patch_4">
    <path d="M 43.007031 306.678125 
L 669.517031 306.678125 
" style="fill: none; stroke: #e5e7eb; stroke-width: 0.8; stroke-linejoin: miter; stroke-linecap: square"/>
   </g>
   <g id="line2d_20">
    <path d="M 71.484759 242.505953 
L 75.611965 238.378654 
L 79.739172 224.338046 
L 83.866379 207.608284 
L 87.993586 215.614481 
L 92.120793 214.538383 
L 96.248 221.863734 
L 100.375206 220.432233 
L 104.502413 220.74927 
L 108.62962 215.338769 
L 112.756827 219.72921 
L 116.884034 217.652542 
L 121.011241 222.464972 
L 125.138448 223.906077 
L 129.265654 221.28554 
L 133.392861 216.643325 
L 137.520068 208.403115 
L 141.647275 209.174943 
L 145.774482 204.143723 
L 149.901689 199.714836 
L 154.028896 203.56827 
L 158.156102 196.230198 
L 162.283309 190.256372 
L 166.410516 201.270344 
L 170.537723 201.734801 
L 174.66493 203.093477 
L 178.792137 199.259502 
L 182.919344 200.673546 
L 187.04655 206.170653 
L 191.173757 203.513321 
L 195.300964 202.924107 
L 199.428171 202.924107 
L 203.555378 200.305586 
L 207.682585 199.141769 
L 273.717894 199.141769 
L 277.845101 199.635873 
L 290.226722 199.635873 
L 294.353928 200.155766 
L 298.481135 201.923078 
L 302.608342 202.448839 
L 306.735549 203.531051 
L 310.862756 206.159342 
L 314.989963 204.223289 
L 319.11717 206.426781 
L 323.244376 196.231977 
L 327.371583 195.820671 
L 331.49879 191.739516 
L 335.625997 189.107265 
L 339.753204 186.995669 
L 343.880411 180.458538 
L 348.007618 174.386785 
L 352.134824 174.446673 
L 356.262031 174.374844 
L 360.389238 169.571388 
L 364.516445 178.541895 
L 368.643652 182.091425 
L 372.770859 186.787172 
L 376.898066 187.946818 
L 381.025272 183.071552 
L 385.152479 179.705519 
L 389.279686 173.273078 
L 393.406893 172.862056 
L 397.5341 171.32155 
L 401.661307 169.601787 
L 405.788513 160.621013 
L 409.91572 163.505493 
L 414.042927 165.00804 
L 418.170134 153.978312 
L 422.297341 159.010898 
L 426.424548 172.755741 
L 430.551755 167.426017 
L 434.678961 159.17552 
L 438.806168 172.458166 
L 442.933375 172.056544 
L 447.060582 183.461171 
L 451.187789 182.896598 
L 455.314996 190.840931 
L 459.442203 196.637229 
L 463.569409 192.082834 
L 467.696616 191.266202 
L 471.823823 192.048209 
L 475.95103 195.458801 
L 480.078237 194.777751 
L 484.205444 191.269495 
L 488.33265 174.611237 
L 492.459857 166.206836 
L 496.587064 166.833815 
L 504.841478 176.032934 
L 508.968685 174.934336 
L 513.095892 167.697231 
L 517.223098 177.144132 
L 521.350305 179.5898 
L 525.477512 179.5898 
L 529.604719 180.999035 
L 537.859133 180.999035 
L 541.98634 178.984739 
L 546.113546 181.864164 
L 550.240753 178.33802 
L 554.36796 175.75515 
L 558.495167 174.535562 
L 562.622374 171.820048 
L 566.749581 169.850346 
L 570.876788 174.549318 
L 575.003994 169.358138 
L 579.131201 144.559657 
L 583.258408 138.964539 
L 587.385615 118.835459 
L 591.512822 112.593843 
L 595.640029 122.580078 
L 599.767235 115.836918 
L 603.894442 114.196329 
L 608.021649 113.890388 
L 612.148856 98.603376 
L 616.276063 89.451243 
L 620.40327 83.043804 
L 624.530477 71.031192 
L 628.657683 64.181084 
L 632.78489 54.682882 
L 636.912097 54.682882 
L 641.039304 43.834489 
L 641.039304 43.834489 
" clip-path="url(#p8c3242ffd9)" style="fill: none; stroke: #172554; stroke-width: 2.5; stroke-linecap: square"/>
   </g>
   <g id="patch_5">
    <path d="M 603.529303 33.249127 
Q 621.320454 38.269808 638.035596 42.986839 
" style="fill: none; stroke: #172554; stroke-linecap: round"/>
    <path d="M 635.059781 40.27676 
L 638.035596 42.986839 
L 634.082044 43.741443 
" style="fill: none; stroke: #172554; stroke-linecap: round"/>
   </g>
   <g id="text_13">
    <!-- RigaCap +384% -->
    <g style="fill: #172554" transform="translate(521.039304 18.686145) scale(0.09 -0.09)">
     <defs>
      <path id="DejaVuSans-Bold-52" d="M 2297 2597 
Q 2675 2597 2839 2737 
Q 3003 2878 3003 3200 
Q 3003 3519 2839 3656 
Q 2675 3794 2297 3794 
L 1791 3794 
L 1791 2597 
L 2297 2597 
z
M 1791 1766 
L 1791 0 
L 588 0 
L 588 4666 
L 2425 4666 
Q 3347 4666 3776 4356 
Q 4206 4047 4206 3378 
Q 4206 2916 3982 2619 
Q 3759 2322 3309 2181 
Q 3556 2125 3751 1926 
Q 3947 1728 4147 1325 
L 4800 0 
L 3519 0 
L 2950 1159 
Q 2778 1509 2601 1637 
Q 2425 1766 2131 1766 
L 1791 1766 
z
" transform="scale(0.015625)"/>
      <path id="DejaVuSans-Bold-69" d="M 538 3500 
L 1656 3500 
L 1656 0 
L 538 0 
L 538 3500 
z
M 538 4863 
L 1656 4863 
L 1656 3950 
L 538 3950 
L 538 4863 
z
" transform="scale(0.015625)"/>
      <path id="DejaVuSans-Bold-67" d="M 2919 594 
Q 2688 288 2409 144 
Q 2131 0 1766 0 
Q 1125 0 706 504 
Q 288 1009 288 1791 
Q 288 2575 706 3076 
Q 1125 3578 1766 3578 
Q 2131 3578 2409 3434 
Q 2688 3291 2919 2981 
L 2919 3500 
L 4044 3500 
L 4044 353 
Q 4044 -491 3511 -936 
Q 2978 -1381 1966 -1381 
Q 1638 -1381 1331 -1331 
Q 1025 -1281 716 -1178 
L 716 -306 
Q 1009 -475 1290 -558 
Q 1572 -641 1856 -641 
Q 2406 -641 2662 -400 
Q 2919 -159 2919 353 
L 2919 594 
z
M 2181 2772 
Q 1834 2772 1640 2515 
Q 1447 2259 1447 1791 
Q 1447 1309 1634 1061 
Q 1822 813 2181 813 
Q 2531 813 2725 1069 
Q 2919 1325 2919 1791 
Q 2919 2259 2725 2515 
Q 2531 2772 2181 2772 
z
" transform="scale(0.015625)"/>
      <path id="DejaVuSans-Bold-61" d="M 2106 1575 
Q 1756 1575 1579 1456 
Q 1403 1338 1403 1106 
Q 1403 894 1545 773 
Q 1688 653 1941 653 
Q 2256 653 2472 879 
Q 2688 1106 2688 1447 
L 2688 1575 
L 2106 1575 
z
M 3816 1997 
L 3816 0 
L 2688 0 
L 2688 519 
Q 2463 200 2181 54 
Q 1900 -91 1497 -91 
Q 953 -91 614 226 
Q 275 544 275 1050 
Q 275 1666 698 1953 
Q 1122 2241 2028 2241 
L 2688 2241 
L 2688 2328 
Q 2688 2594 2478 2717 
Q 2269 2841 1825 2841 
Q 1466 2841 1156 2769 
Q 847 2697 581 2553 
L 581 3406 
Q 941 3494 1303 3539 
Q 1666 3584 2028 3584 
Q 2975 3584 3395 3211 
Q 3816 2838 3816 1997 
z
" transform="scale(0.015625)"/>
      <path id="DejaVuSans-Bold-43" d="M 4288 256 
Q 3956 84 3597 -3 
Q 3238 -91 2847 -91 
Q 1681 -91 1000 561 
Q 319 1213 319 2328 
Q 319 3447 1000 4098 
Q 1681 4750 2847 4750 
Q 3238 4750 3597 4662 
Q 3956 4575 4288 4403 
L 4288 3438 
Q 3953 3666 3628 3772 
Q 3303 3878 2944 3878 
Q 2300 3878 1931 3465 
Q 1563 3053 1563 2328 
Q 1563 1606 1931 1193 
Q 2300 781 2944 781 
Q 3303 781 3628 887 
Q 3953 994 4288 1222 
L 4288 256 
z
" transform="scale(0.015625)"/>
      <path id="DejaVuSans-Bold-70" d="M 1656 506 
L 1656 -1331 
L 538 -1331 
L 538 3500 
L 1656 3500 
L 1656 2988 
Q 1888 3294 2169 3439 
Q 2450 3584 2816 3584 
Q 3463 3584 3878 3070 
Q 4294 2556 4294 1747 
Q 4294 938 3878 423 
Q 3463 -91 2816 -91 
Q 2450 -91 2169 54 
Q 1888 200 1656 506 
z
M 2400 2772 
Q 2041 2772 1848 2508 
Q 1656 2244 1656 1747 
Q 1656 1250 1848 986 
Q 2041 722 2400 722 
Q 2759 722 2948 984 
Q 3138 1247 3138 1747 
Q 3138 2247 2948 2509 
Q 2759 2772 2400 2772 
z
" transform="scale(0.015625)"/>
      <path id="DejaVuSans-Bold-20" transform="scale(0.015625)"/>
      <path id="DejaVuSans-Bold-2b" d="M 3053 4013 
L 3053 2375 
L 4684 2375 
L 4684 1638 
L 3053 1638 
L 3053 0 
L 2309 0 
L 2309 1638 
L 678 1638 
L 678 2375 
L 2309 2375 
L 2309 4013 
L 3053 4013 
z
" transform="scale(0.015625)"/>
      <path id="DejaVuSans-Bold-33" d="M 2981 2516 
Q 3453 2394 3698 2092 
Q 3944 1791 3944 1325 
Q 3944 631 3412 270 
Q 2881 -91 1863 -91 
Q 1503 -91 1142 -33 
Q 781 25 428 141 
L 428 1069 
Q 766 900 1098 814 
Q 1431 728 1753 728 
Q 2231 728 2486 893 
Q 2741 1059 2741 1369 
Q 2741 1688 2480 1852 
Q 2219 2016 1709 2016 
L 1228 2016 
L 1228 2791 
L 1734 2791 
Q 2188 2791 2409 2933 
Q 2631 3075 2631 3366 
Q 2631 3634 2415 3781 
Q 2200 3928 1806 3928 
Q 1516 3928 1219 3862 
Q 922 3797 628 3669 
L 628 4550 
Q 984 4650 1334 4700 
Q 1684 4750 2022 4750 
Q 2931 4750 3382 4451 
Q 3834 4153 3834 3553 
Q 3834 3144 3618 2883 
Q 3403 2622 2981 2516 
z
" transform="scale(0.015625)"/>
      <path id="DejaVuSans-Bold-38" d="M 2228 2088 
Q 1891 2088 1709 1903 
Q 1528 1719 1528 1375 
Q 1528 1031 1709 848 
Q 1891 666 2228 666 
Q 2563 666 2741 848 
Q 2919 1031 2919 1375 
Q 2919 1722 2741 1905 
Q 2563 2088 2228 2088 
z
M 1350 2484 
Q 925 2613 709 2878 
Q 494 3144 494 3541 
Q 494 4131 934 4440 
Q 1375 4750 2228 4750 
Q 3075 4750 3515 4442 
Q 3956 4134 3956 3541 
Q 3956 3144 3739 2878 
Q 3522 2613 3097 2484 
Q 3572 2353 3814 2058 
Q 4056 1763 4056 1313 
Q 4056 619 3595 264 
Q 3134 -91 2228 -91 
Q 1319 -91 855 264 
Q 391 619 391 1313 
Q 391 1763 633 2058 
Q 875 2353 1350 2484 
z
M 1631 3419 
Q 1631 3141 1786 2991 
Q 1941 2841 2228 2841 
Q 2509 2841 2662 2991 
Q 2816 3141 2816 3419 
Q 2816 3697 2662 3845 
Q 2509 3994 2228 3994 
Q 1941 3994 1786 3844 
Q 1631 3694 1631 3419 
z
" transform="scale(0.015625)"/>
      <path id="DejaVuSans-Bold-34" d="M 2356 3675 
L 1038 1722 
L 2356 1722 
L 2356 3675 
z
M 2156 4666 
L 3494 4666 
L 3494 1722 
L 4159 1722 
L 4159 850 
L 3494 850 
L 3494 0 
L 2356 0 
L 2356 850 
L 288 850 
L 288 1881 
L 2156 4666 
z
" transform="scale(0.015625)"/>
      <path id="DejaVuSans-Bold-25" d="M 4959 1925 
Q 4738 1925 4616 1733 
Q 4494 1541 4494 1184 
Q 4494 825 4614 633 
Q 4734 441 4959 441 
Q 5184 441 5303 633 
Q 5422 825 5422 1184 
Q 5422 1541 5301 1733 
Q 5181 1925 4959 1925 
z
M 4959 2450 
Q 5541 2450 5875 2112 
Q 6209 1775 6209 1184 
Q 6209 594 5875 251 
Q 5541 -91 4959 -91 
Q 4378 -91 4042 251 
Q 3706 594 3706 1184 
Q 3706 1772 4042 2111 
Q 4378 2450 4959 2450 
z
M 2094 -91 
L 1403 -91 
L 4319 4750 
L 5013 4750 
L 2094 -91 
z
M 1453 4750 
Q 2034 4750 2367 4411 
Q 2700 4072 2700 3481 
Q 2700 2891 2367 2550 
Q 2034 2209 1453 2209 
Q 872 2209 539 2550 
Q 206 2891 206 3481 
Q 206 4072 539 4411 
Q 872 4750 1453 4750 
z
M 1453 4225 
Q 1228 4225 1106 4031 
Q 984 3838 984 3481 
Q 984 3122 1106 2926 
Q 1228 2731 1453 2731 
Q 1678 2731 1798 2926 
Q 1919 3122 1919 3481 
Q 1919 3838 1797 4031 
Q 1675 4225 1453 4225 
z
" transform="scale(0.015625)"/>
     </defs>
     <use xlink:href="#DejaVuSans-Bold-52"/>
     <use xlink:href="#DejaVuSans-Bold-69" x="77.001953"/>
     <use xlink:href="#DejaVuSans-Bold-67" x="111.279297"/>
     <use xlink:href="#DejaVuSans-Bold-61" x="182.861328"/>
     <use xlink:href="#DejaVuSans-Bold-43" x="250.341797"/>
     <use xlink:href="#DejaVuSans-Bold-61" x="323.730469"/>
     <use xlink:href="#DejaVuSans-Bold-70" x="391.210938"/>
     <use xlink:href="#DejaVuSans-Bold-20" x="462.792969"/>
     <use xlink:href="#DejaVuSans-Bold-2b" x="497.607422"/>
     <use xlink:href="#DejaVuSans-Bold-33" x="581.396484"/>
     <use xlink:href="#DejaVuSans-Bold-38" x="650.976562"/>
     <use xlink:href="#DejaVuSans-Bold-34" x="720.556641"/>
     <use xlink:href="#DejaVuSans-Bold-25" x="790.136719"/>
    </g>
    <!-- $485K -->
    <g style="fill: #172554" transform="translate(521.039304 28.834489) scale(0.09 -0.09)">
     <defs>
      <path id="DejaVuSans-Bold-24" d="M 2484 -941 
L 1978 -941 
L 1975 0 
Q 1584 16 1218 87 
Q 853 159 506 288 
L 506 1106 
Q 866 922 1233 823 
Q 1600 725 1978 713 
L 1978 1684 
L 1875 1703 
Q 1128 1834 814 2115 
Q 500 2397 500 2925 
Q 500 3484 883 3798 
Q 1266 4113 1975 4141 
L 1978 4863 
L 2484 4863 
L 2484 4153 
Q 2797 4128 3109 4075 
Q 3422 4022 3738 3938 
L 3738 3144 
Q 3425 3275 3112 3348 
Q 2800 3422 2484 3438 
L 2484 2541 
L 2584 2522 
Q 3378 2397 3698 2105 
Q 4019 1813 4019 1241 
Q 4019 666 3637 358 
Q 3256 50 2484 6 
L 2484 -941 
z
M 1978 2613 
L 1978 3428 
Q 1756 3416 1623 3308 
Q 1491 3200 1491 3034 
Q 1491 2850 1612 2745 
Q 1734 2641 1978 2613 
z
M 2484 1594 
L 2484 725 
Q 2756 728 2892 831 
Q 3028 934 3028 1141 
Q 3028 1353 2903 1458 
Q 2778 1563 2484 1594 
z
" transform="scale(0.015625)"/>
      <path id="DejaVuSans-Bold-35" d="M 678 4666 
L 3669 4666 
L 3669 3781 
L 1638 3781 
L 1638 3059 
Q 1775 3097 1914 3117 
Q 2053 3138 2203 3138 
Q 3056 3138 3531 2711 
Q 4006 2284 4006 1522 
Q 4006 766 3489 337 
Q 2972 -91 2053 -91 
Q 1656 -91 1267 -14 
Q 878 63 494 219 
L 494 1166 
Q 875 947 1217 837 
Q 1559 728 1863 728 
Q 2300 728 2551 942 
Q 2803 1156 2803 1522 
Q 2803 1891 2551 2103 
Q 2300 2316 1863 2316 
Q 1603 2316 1309 2248 
Q 1016 2181 678 2041 
L 678 4666 
z
" transform="scale(0.015625)"/>
      <path id="DejaVuSans-Bold-4b" d="M 588 4666 
L 1791 4666 
L 1791 2963 
L 3525 4666 
L 4922 4666 
L 2675 2456 
L 5153 0 
L 3647 0 
L 1791 1838 
L 1791 0 
L 588 0 
L 588 4666 
z
" transform="scale(0.015625)"/>
     </defs>
     <use xlink:href="#DejaVuSans-Bold-24"/>
     <use xlink:href="#DejaVuSans-Bold-34" x="69.580078"/>
     <use xlink:href="#DejaVuSans-Bold-38" x="139.160156"/>
     <use xlink:href="#DejaVuSans-Bold-35" x="208.740234"/>
     <use xlink:href="#DejaVuSans-Bold-4b" x="278.320312"/>
    </g>
   </g>
   <g id="patch_6">
    <path d="M 606.780011 207.449773 
Q 622.945697 203.041618 638.032732 198.927596 
" style="fill: none; stroke: #9ca3af; stroke-linecap: round"/>
    <path d="M 634.086002 198.138092 
L 638.032732 198.927596 
L 635.03309 201.611278 
" style="fill: none; stroke: #9ca3af; stroke-linecap: round"/>
   </g>
   <g id="text_14">
    <!-- SPY +86% -->
    <g style="fill: #9ca3af" transform="translate(551.039304 213.029715) scale(0.09 -0.09)">
     <defs>
      <path id="DejaVuSans-Bold-53" d="M 3834 4519 
L 3834 3531 
Q 3450 3703 3084 3790 
Q 2719 3878 2394 3878 
Q 1963 3878 1756 3759 
Q 1550 3641 1550 3391 
Q 1550 3203 1689 3098 
Q 1828 2994 2194 2919 
L 2706 2816 
Q 3484 2659 3812 2340 
Q 4141 2022 4141 1434 
Q 4141 663 3683 286 
Q 3225 -91 2284 -91 
Q 1841 -91 1394 -6 
Q 947 78 500 244 
L 500 1259 
Q 947 1022 1364 901 
Q 1781 781 2169 781 
Q 2563 781 2772 912 
Q 2981 1044 2981 1288 
Q 2981 1506 2839 1625 
Q 2697 1744 2272 1838 
L 1806 1941 
Q 1106 2091 782 2419 
Q 459 2747 459 3303 
Q 459 4000 909 4375 
Q 1359 4750 2203 4750 
Q 2588 4750 2994 4692 
Q 3400 4634 3834 4519 
z
" transform="scale(0.015625)"/>
      <path id="DejaVuSans-Bold-50" d="M 588 4666 
L 2584 4666 
Q 3475 4666 3951 4270 
Q 4428 3875 4428 3144 
Q 4428 2409 3951 2014 
Q 3475 1619 2584 1619 
L 1791 1619 
L 1791 0 
L 588 0 
L 588 4666 
z
M 1791 3794 
L 1791 2491 
L 2456 2491 
Q 2806 2491 2997 2661 
Q 3188 2831 3188 3144 
Q 3188 3456 2997 3625 
Q 2806 3794 2456 3794 
L 1791 3794 
z
" transform="scale(0.015625)"/>
      <path id="DejaVuSans-Bold-59" d="M -63 4666 
L 1253 4666 
L 2316 3003 
L 3378 4666 
L 4697 4666 
L 2919 1966 
L 2919 0 
L 1716 0 
L 1716 1966 
L -63 4666 
z
" transform="scale(0.015625)"/>
      <path id="DejaVuSans-Bold-36" d="M 2316 2303 
Q 2000 2303 1842 2098 
Q 1684 1894 1684 1484 
Q 1684 1075 1842 870 
Q 2000 666 2316 666 
Q 2634 666 2792 870 
Q 2950 1075 2950 1484 
Q 2950 1894 2792 2098 
Q 2634 2303 2316 2303 
z
M 3803 4544 
L 3803 3681 
Q 3506 3822 3243 3889 
Q 2981 3956 2731 3956 
Q 2194 3956 1894 3657 
Q 1594 3359 1544 2772 
Q 1750 2925 1990 3001 
Q 2231 3078 2516 3078 
Q 3231 3078 3670 2659 
Q 4109 2241 4109 1563 
Q 4109 813 3618 361 
Q 3128 -91 2303 -91 
Q 1394 -91 895 523 
Q 397 1138 397 2266 
Q 397 3422 980 4083 
Q 1563 4744 2578 4744 
Q 2900 4744 3203 4694 
Q 3506 4644 3803 4544 
z
" transform="scale(0.015625)"/>
     </defs>
     <use xlink:href="#DejaVuSans-Bold-53"/>
     <use xlink:href="#DejaVuSans-Bold-50" x="72.021484"/>
     <use xlink:href="#DejaVuSans-Bold-59" x="145.3125"/>
     <use xlink:href="#DejaVuSans-Bold-20" x="217.724609"/>
     <use xlink:href="#DejaVuSans-Bold-2b" x="252.539062"/>
     <use xlink:href="#DejaVuSans-Bold-38" x="336.328125"/>
     <use xlink:href="#DejaVuSans-Bold-36" x="405.908203"/>
     <use xlink:href="#DejaVuSans-Bold-25" x="475.488281"/>
    </g>
    <!-- $186K -->
    <g style="fill: #9ca3af" transform="translate(551.039304 223.107747) scale(0.09 -0.09)">
     <defs>
      <path id="DejaVuSans-Bold-31" d="M 750 831 
L 1813 831 
L 1813 3847 
L 722 3622 
L 722 4441 
L 1806 4666 
L 2950 4666 
L 2950 831 
L 4013 831 
L 4013 0 
L 750 0 
L 750 831 
z
" transform="scale(0.015625)"/>
     </defs>
     <use xlink:href="#DejaVuSans-Bold-24"/>
     <use xlink:href="#DejaVuSans-Bold-31" x="69.580078"/>
     <use xlink:href="#DejaVuSans-Bold-38" x="139.160156"/>
     <use xlink:href="#DejaVuSans-Bold-36" x="208.740234"/>
     <use xlink:href="#DejaVuSans-Bold-4b" x="278.320312"/>
    </g>
   </g>
   <g id="text_15">
    <!-- RigaCap vs S&amp;P 500 — 5-Year Walk-Forward (2021–2026) -->
    <g style="fill: #172554" transform="translate(164.607969 16.318125) scale(0.12 -0.12)">
     <defs>
      <path id="DejaVuSans-Bold-76" d="M 97 3500 
L 1216 3500 
L 2088 1081 
L 2956 3500 
L 4078 3500 
L 2700 0 
L 1472 0 
L 97 3500 
z
" transform="scale(0.015625)"/>
      <path id="DejaVuSans-Bold-73" d="M 3272 3391 
L 3272 2541 
Q 2913 2691 2578 2766 
Q 2244 2841 1947 2841 
Q 1628 2841 1473 2761 
Q 1319 2681 1319 2516 
Q 1319 2381 1436 2309 
Q 1553 2238 1856 2203 
L 2053 2175 
Q 2913 2066 3209 1816 
Q 3506 1566 3506 1031 
Q 3506 472 3093 190 
Q 2681 -91 1863 -91 
Q 1516 -91 1145 -36 
Q 775 19 384 128 
L 384 978 
Q 719 816 1070 734 
Q 1422 653 1784 653 
Q 2113 653 2278 743 
Q 2444 834 2444 1013 
Q 2444 1163 2330 1236 
Q 2216 1309 1875 1350 
L 1678 1375 
Q 931 1469 631 1722 
Q 331 1975 331 2491 
Q 331 3047 712 3315 
Q 1094 3584 1881 3584 
Q 2191 3584 2531 3537 
Q 2872 3491 3272 3391 
z
" transform="scale(0.015625)"/>
      <path id="DejaVuSans-Bold-26" d="M 2497 3097 
L 3775 1691 
Q 3941 1909 4027 2181 
Q 4113 2453 4128 2797 
L 5100 2797 
Q 5053 2228 4879 1784 
Q 4706 1341 4397 1006 
L 5313 0 
L 3988 0 
L 3681 341 
Q 3353 122 2990 15 
Q 2628 -91 2222 -91 
Q 1400 -91 892 342 
Q 384 775 384 1459 
Q 384 1916 607 2267 
Q 831 2619 1338 2950 
Q 1206 3116 1143 3281 
Q 1081 3447 1081 3628 
Q 1081 4138 1478 4444 
Q 1875 4750 2534 4750 
Q 2819 4750 3126 4704 
Q 3434 4659 3769 4569 
L 3769 3700 
Q 3475 3850 3212 3922 
Q 2950 3994 2700 3994 
Q 2459 3994 2326 3901 
Q 2194 3809 2194 3641 
Q 2194 3534 2270 3398 
Q 2347 3263 2497 3097 
z
M 1875 2322 
Q 1672 2175 1569 1989 
Q 1466 1803 1466 1581 
Q 1466 1222 1731 969 
Q 1997 716 2369 716 
Q 2578 716 2759 780 
Q 2941 844 3097 972 
L 1875 2322 
z
" transform="scale(0.015625)"/>
      <path id="DejaVuSans-Bold-30" d="M 2944 2338 
Q 2944 3213 2780 3570 
Q 2616 3928 2228 3928 
Q 1841 3928 1675 3570 
Q 1509 3213 1509 2338 
Q 1509 1453 1675 1090 
Q 1841 728 2228 728 
Q 2613 728 2778 1090 
Q 2944 1453 2944 2338 
z
M 4147 2328 
Q 4147 1169 3647 539 
Q 3147 -91 2228 -91 
Q 1306 -91 806 539 
Q 306 1169 306 2328 
Q 306 3491 806 4120 
Q 1306 4750 2228 4750 
Q 3147 4750 3647 4120 
Q 4147 3491 4147 2328 
z
" transform="scale(0.015625)"/>
      <path id="DejaVuSans-Bold-2014" d="M 344 2156 
L 6056 2156 
L 6056 1350 
L 344 1350 
L 344 2156 
z
" transform="scale(0.015625)"/>
      <path id="DejaVuSans-Bold-2d" d="M 347 2297 
L 2309 2297 
L 2309 1388 
L 347 1388 
L 347 2297 
z
" transform="scale(0.015625)"/>
      <path id="DejaVuSans-Bold-65" d="M 4031 1759 
L 4031 1441 
L 1416 1441 
Q 1456 1047 1700 850 
Q 1944 653 2381 653 
Q 2734 653 3104 758 
Q 3475 863 3866 1075 
L 3866 213 
Q 3469 63 3072 -14 
Q 2675 -91 2278 -91 
Q 1328 -91 801 392 
Q 275 875 275 1747 
Q 275 2603 792 3093 
Q 1309 3584 2216 3584 
Q 3041 3584 3536 3087 
Q 4031 2591 4031 1759 
z
M 2881 2131 
Q 2881 2450 2695 2645 
Q 2509 2841 2209 2841 
Q 1884 2841 1681 2658 
Q 1478 2475 1428 2131 
L 2881 2131 
z
" transform="scale(0.015625)"/>
      <path id="DejaVuSans-Bold-72" d="M 3138 2547 
Q 2991 2616 2845 2648 
Q 2700 2681 2553 2681 
Q 2122 2681 1889 2404 
Q 1656 2128 1656 1613 
L 1656 0 
L 538 0 
L 538 3500 
L 1656 3500 
L 1656 2925 
Q 1872 3269 2151 3426 
Q 2431 3584 2822 3584 
Q 2878 3584 2943 3579 
Q 3009 3575 3134 3559 
L 3138 2547 
z
" transform="scale(0.015625)"/>
      <path id="DejaVuSans-Bold-57" d="M 191 4666 
L 1344 4666 
L 2150 1275 
L 2950 4666 
L 4109 4666 
L 4909 1275 
L 5716 4666 
L 6859 4666 
L 5759 0 
L 4372 0 
L 3525 3547 
L 2688 0 
L 1300 0 
L 191 4666 
z
" transform="scale(0.015625)"/>
      <path id="DejaVuSans-Bold-6c" d="M 538 4863 
L 1656 4863 
L 1656 0 
L 538 0 
L 538 4863 
z
" transform="scale(0.015625)"/>
      <path id="DejaVuSans-Bold-6b" d="M 538 4863 
L 1656 4863 
L 1656 2216 
L 2944 3500 
L 4244 3500 
L 2534 1894 
L 4378 0 
L 3022 0 
L 1656 1459 
L 1656 0 
L 538 0 
L 538 4863 
z
" transform="scale(0.015625)"/>
      <path id="DejaVuSans-Bold-46" d="M 588 4666 
L 3834 4666 
L 3834 3756 
L 1791 3756 
L 1791 2888 
L 3713 2888 
L 3713 1978 
L 1791 1978 
L 1791 0 
L 588 0 
L 588 4666 
z
" transform="scale(0.015625)"/>
      <path id="DejaVuSans-Bold-6f" d="M 2203 2784 
Q 1831 2784 1636 2517 
Q 1441 2250 1441 1747 
Q 1441 1244 1636 976 
Q 1831 709 2203 709 
Q 2569 709 2762 976 
Q 2956 1244 2956 1747 
Q 2956 2250 2762 2517 
Q 2569 2784 2203 2784 
z
M 2203 3584 
Q 3106 3584 3614 3096 
Q 4122 2609 4122 1747 
Q 4122 884 3614 396 
Q 3106 -91 2203 -91 
Q 1297 -91 786 396 
Q 275 884 275 1747 
Q 275 2609 786 3096 
Q 1297 3584 2203 3584 
z
" transform="scale(0.015625)"/>
      <path id="DejaVuSans-Bold-77" d="M 225 3500 
L 1313 3500 
L 1900 1088 
L 2491 3500 
L 3425 3500 
L 4013 1113 
L 4603 3500 
L 5691 3500 
L 4769 0 
L 3547 0 
L 2956 2406 
L 2369 0 
L 1147 0 
L 225 3500 
z
" transform="scale(0.015625)"/>
      <path id="DejaVuSans-Bold-64" d="M 2919 2988 
L 2919 4863 
L 4044 4863 
L 4044 0 
L 2919 0 
L 2919 506 
Q 2688 197 2409 53 
Q 2131 -91 1766 -91 
Q 1119 -91 703 423 
Q 288 938 288 1747 
Q 288 2556 703 3070 
Q 1119 3584 1766 3584 
Q 2128 3584 2408 3439 
Q 2688 3294 2919 2988 
z
M 2181 722 
Q 2541 722 2730 984 
Q 2919 1247 2919 1747 
Q 2919 2247 2730 2509 
Q 2541 2772 2181 2772 
Q 1825 2772 1636 2509 
Q 1447 2247 1447 1747 
Q 1447 1247 1636 984 
Q 1825 722 2181 722 
z
" transform="scale(0.015625)"/>
      <path id="DejaVuSans-Bold-28" d="M 2413 -844 
L 1484 -844 
Q 1006 -72 778 623 
Q 550 1319 550 2003 
Q 550 2688 779 3389 
Q 1009 4091 1484 4856 
L 2413 4856 
Q 2013 4116 1813 3408 
Q 1613 2700 1613 2009 
Q 1613 1319 1811 609 
Q 2009 -100 2413 -844 
z
" transform="scale(0.015625)"/>
      <path id="DejaVuSans-Bold-32" d="M 1844 884 
L 3897 884 
L 3897 0 
L 506 0 
L 506 884 
L 2209 2388 
Q 2438 2594 2547 2791 
Q 2656 2988 2656 3200 
Q 2656 3528 2436 3728 
Q 2216 3928 1850 3928 
Q 1569 3928 1234 3808 
Q 900 3688 519 3450 
L 519 4475 
Q 925 4609 1322 4679 
Q 1719 4750 2100 4750 
Q 2938 4750 3402 4381 
Q 3866 4013 3866 3353 
Q 3866 2972 3669 2642 
Q 3472 2313 2841 1759 
L 1844 884 
z
" transform="scale(0.015625)"/>
      <path id="DejaVuSans-Bold-2013" d="M 344 2156 
L 2856 2156 
L 2856 1350 
L 344 1350 
L 344 2156 
z
" transform="scale(0.015625)"/>
      <path id="DejaVuSans-Bold-29" d="M 513 -844 
Q 913 -100 1113 609 
Q 1313 1319 1313 2009 
Q 1313 2700 1113 3408 
Q 913 4116 513 4856 
L 1441 4856 
Q 1916 4091 2145 3389 
Q 2375 2688 2375 2003 
Q 2375 1319 2147 623 
Q 1919 -72 1441 -844 
L 513 -844 
z
" transform="scale(0.015625)"/>
     </defs>
     <use xlink:href="#DejaVuSans-Bold-52"/>
     <use xlink:href="#DejaVuSans-Bold-69" x="77.001953"/>
     <use xlink:href="#DejaVuSans-Bold-67" x="111.279297"/>
     <use xlink:href="#DejaVuSans-Bold-61" x="182.861328"/>
     <use xlink:href="#DejaVuSans-Bold-43" x="250.341797"/>
     <use xlink:href="#DejaVuSans-Bold-61" x="323.730469"/>
     <use xlink:href="#DejaVuSans-Bold-70" x="391.210938"/>
     <use xlink:href="#DejaVuSans-Bold-20" x="462.792969"/>
     <use xlink:href="#DejaVuSans-Bold-76" x="497.607422"/>
     <use xlink:href="#DejaVuSans-Bold-73" x="562.792969"/>
     <use xlink:href="#DejaVuSans-Bold-20" x="622.314453"/>
     <use xlink:href="#DejaVuSans-Bold-53" x="657.128906"/>
     <use xlink:href="#DejaVuSans-Bold-26" x="729.150391"/>
     <use xlink:href="#DejaVuSans-Bold-50" x="816.357422"/>
     <use xlink:href="#DejaVuSans-Bold-20" x="889.648438"/>
     <use xlink:href="#DejaVuSans-Bold-35" x="924.462891"/>
     <use xlink:href="#DejaVuSans-Bold-30" x="994.042969"/>
     <use xlink:href="#DejaVuSans-Bold-30" x="1063.623047"/>
     <use xlink:href="#DejaVuSans-Bold-20" x="1133.203125"/>
     <use xlink:href="#DejaVuSans-Bold-2014" x="1168.017578"/>
     <use xlink:href="#DejaVuSans-Bold-20" x="1268.017578"/>
     <use xlink:href="#DejaVuSans-Bold-35" x="1302.832031"/>
     <use xlink:href="#DejaVuSans-Bold-2d" x="1372.412109"/>
     <use xlink:href="#DejaVuSans-Bold-59" x="1399.166016"/>
     <use xlink:href="#DejaVuSans-Bold-65" x="1462.453125"/>
     <use xlink:href="#DejaVuSans-Bold-61" x="1530.275391"/>
     <use xlink:href="#DejaVuSans-Bold-72" x="1597.755859"/>
     <use xlink:href="#DejaVuSans-Bold-20" x="1647.072266"/>
     <use xlink:href="#DejaVuSans-Bold-57" x="1681.886719"/>
     <use xlink:href="#DejaVuSans-Bold-61" x="1788.564453"/>
     <use xlink:href="#DejaVuSans-Bold-6c" x="1856.044922"/>
     <use xlink:href="#DejaVuSans-Bold-6b" x="1890.322266"/>
     <use xlink:href="#DejaVuSans-Bold-2d" x="1956.826172"/>
     <use xlink:href="#DejaVuSans-Bold-46" x="1998.330078"/>
     <use xlink:href="#DejaVuSans-Bold-6f" x="2062.640625"/>
     <use xlink:href="#DejaVuSans-Bold-72" x="2131.341797"/>
     <use xlink:href="#DejaVuSans-Bold-77" x="2180.658203"/>
     <use xlink:href="#DejaVuSans-Bold-61" x="2273.041016"/>
     <use xlink:href="#DejaVuSans-Bold-72" x="2340.521484"/>
     <use xlink:href="#DejaVuSans-Bold-64" x="2389.837891"/>
     <use xlink:href="#DejaVuSans-Bold-20" x="2461.419922"/>
     <use xlink:href="#DejaVuSans-Bold-28" x="2496.234375"/>
     <use xlink:href="#DejaVuSans-Bold-32" x="2541.9375"/>
     <use xlink:href="#DejaVuSans-Bold-30" x="2611.517578"/>
     <use xlink:href="#DejaVuSans-Bold-32" x="2681.097656"/>
     <use xlink:href="#DejaVuSans-Bold-31" x="2750.677734"/>
     <use xlink:href="#DejaVuSans-Bold-2013" x="2820.257812"/>
     <use xlink:href="#DejaVuSans-Bold-32" x="2870.257812"/>
     <use xlink:href="#DejaVuSans-Bold-30" x="2939.837891"/>
     <use xlink:href="#DejaVuSans-Bold-32" x="3009.417969"/>
     <use xlink:href="#DejaVuSans-Bold-36" x="3078.998047"/>
     <use xlink:href="#DejaVuSans-Bold-29" x="3148.578125"/>
    </g>
   </g>
   <g id="PathCollection_1">
    <defs>
     <path id="mdfd1176a2d" d="M 0 3.872983 
C 1.027127 3.872983 2.012324 3.464901 2.738613 2.738613 
C 3.464901 2.012324 3.872983 1.027127 3.872983 0 
C 3.872983 -1.027127 3.464901 -2.012324 2.738613 -2.738613 
C 2.012324 -3.464901 1.027127 -3.872983 0 -3.872983 
C -1.027127 -3.872983 -2.012324 -3.464901 -2.738613 -2.738613 
C -3.464901 -2.012324 -3.872983 -1.027127 -3.872983 0 
C -3.872983 1.027127 -3.464901 2.012324 -2.738613 2.738613 
C -2.012324 3.464901 -1.027127 3.872983 0 3.872983 
z
" style="stroke: #172554; stroke-width: 1.5"/>
    </defs>
    <g clip-path="url(#p8c3242ffd9)">
     <use xlink:href="#mdfd1176a2d" x="641.039304" y="43.834489" style="fill: #d4af37; stroke: #172554; stroke-width: 1.5"/>
    </g>
   </g>
   <g id="legend_1">
    <g id="patch_7">
     <path d="M 49.307031 64.93875 
L 162.59875 64.93875 
Q 164.39875 64.93875 164.39875 63.13875 
L 164.39875 37.618125 
Q 164.39875 35.818125 162.59875 35.818125 
L 49.307031 35.818125 
Q 47.507031 35.818125 47.507031 37.618125 
L 47.507031 63.13875 
Q 47.507031 64.93875 49.307031 64.93875 
z
" style="fill: #ffffff; opacity: 0.9; stroke: #e5e7eb; stroke-linejoin: miter"/>
    </g>
    <g id="line2d_21">
     <path d="M 51.107031 43.106719 
L 60.107031 43.106719 
L 69.107031 43.106719 
" style="fill: none; stroke: #172554; stroke-width: 2.5; stroke-linecap: square"/>
    </g>
    <g id="text_16">
     <!-- RigaCap Ensemble -->
     <g transform="translate(76.307031 46.256719) scale(0.09 -0.09)">
      <defs>
       <path id="DejaVuSans-52" d="M 2841 2188 
Q 3044 2119 3236 1894 
Q 3428 1669 3622 1275 
L 4263 0 
L 3584 0 
L 2988 1197 
Q 2756 1666 2539 1819 
Q 2322 1972 1947 1972 
L 1259 1972 
L 1259 0 
L 628 0 
L 628 4666 
L 2053 4666 
Q 2853 4666 3247 4331 
Q 3641 3997 3641 3322 
Q 3641 2881 3436 2590 
Q 3231 2300 2841 2188 
z
M 1259 4147 
L 1259 2491 
L 2053 2491 
Q 2509 2491 2742 2702 
Q 2975 2913 2975 3322 
Q 2975 3731 2742 3939 
Q 2509 4147 2053 4147 
L 1259 4147 
z
" transform="scale(0.015625)"/>
       <path id="DejaVuSans-69" d="M 603 3500 
L 1178 3500 
L 1178 0 
L 603 0 
L 603 3500 
z
M 603 4863 
L 1178 4863 
L 1178 4134 
L 603 4134 
L 603 4863 
z
" transform="scale(0.015625)"/>
       <path id="DejaVuSans-67" d="M 2906 1791 
Q 2906 2416 2648 2759 
Q 2391 3103 1925 3103 
Q 1463 3103 1205 2759 
Q 947 2416 947 1791 
Q 947 1169 1205 825 
Q 1463 481 1925 481 
Q 2391 481 2648 825 
Q 2906 1169 2906 1791 
z
M 3481 434 
Q 3481 -459 3084 -895 
Q 2688 -1331 1869 -1331 
Q 1566 -1331 1297 -1286 
Q 1028 -1241 775 -1147 
L 775 -588 
Q 1028 -725 1275 -790 
Q 1522 -856 1778 -856 
Q 2344 -856 2625 -561 
Q 2906 -266 2906 331 
L 2906 616 
Q 2728 306 2450 153 
Q 2172 0 1784 0 
Q 1141 0 747 490 
Q 353 981 353 1791 
Q 353 2603 747 3093 
Q 1141 3584 1784 3584 
Q 2172 3584 2450 3431 
Q 2728 3278 2906 2969 
L 2906 3500 
L 3481 3500 
L 3481 434 
z
" transform="scale(0.015625)"/>
       <path id="DejaVuSans-61" d="M 2194 1759 
Q 1497 1759 1228 1600 
Q 959 1441 959 1056 
Q 959 750 1161 570 
Q 1363 391 1709 391 
Q 2188 391 2477 730 
Q 2766 1069 2766 1631 
L 2766 1759 
L 2194 1759 
z
M 3341 1997 
L 3341 0 
L 2766 0 
L 2766 531 
Q 2569 213 2275 61 
Q 1981 -91 1556 -91 
Q 1019 -91 701 211 
Q 384 513 384 1019 
Q 384 1609 779 1909 
Q 1175 2209 1959 2209 
L 2766 2209 
L 2766 2266 
Q 2766 2663 2505 2880 
Q 2244 3097 1772 3097 
Q 1472 3097 1187 3025 
Q 903 2953 641 2809 
L 641 3341 
Q 956 3463 1253 3523 
Q 1550 3584 1831 3584 
Q 2591 3584 2966 3190 
Q 3341 2797 3341 1997 
z
" transform="scale(0.015625)"/>
       <path id="DejaVuSans-43" d="M 4122 4306 
L 4122 3641 
Q 3803 3938 3442 4084 
Q 3081 4231 2675 4231 
Q 1875 4231 1450 3742 
Q 1025 3253 1025 2328 
Q 1025 1406 1450 917 
Q 1875 428 2675 428 
Q 3081 428 3442 575 
Q 3803 722 4122 1019 
L 4122 359 
Q 3791 134 3420 21 
Q 3050 -91 2638 -91 
Q 1578 -91 968 557 
Q 359 1206 359 2328 
Q 359 3453 968 4101 
Q 1578 4750 2638 4750 
Q 3056 4750 3426 4639 
Q 3797 4528 4122 4306 
z
" transform="scale(0.015625)"/>
       <path id="DejaVuSans-70" d="M 1159 525 
L 1159 -1331 
L 581 -1331 
L 581 3500 
L 1159 3500 
L 1159 2969 
Q 1341 3281 1617 3432 
Q 1894 3584 2278 3584 
Q 2916 3584 3314 3078 
Q 3713 2572 3713 1747 
Q 3713 922 3314 415 
Q 2916 -91 2278 -91 
Q 1894 -91 1617 61 
Q 1341 213 1159 525 
z
M 3116 1747 
Q 3116 2381 2855 2742 
Q 2594 3103 2138 3103 
Q 1681 3103 1420 2742 
Q 1159 2381 1159 1747 
Q 1159 1113 1420 752 
Q 1681 391 2138 391 
Q 2594 391 2855 752 
Q 3116 1113 3116 1747 
z
" transform="scale(0.015625)"/>
       <path id="DejaVuSans-20" transform="scale(0.015625)"/>
       <path id="DejaVuSans-45" d="M 628 4666 
L 3578 4666 
L 3578 4134 
L 1259 4134 
L 1259 2753 
L 3481 2753 
L 3481 2222 
L 1259 2222 
L 1259 531 
L 3634 531 
L 3634 0 
L 628 0 
L 628 4666 
z
" transform="scale(0.015625)"/>
       <path id="DejaVuSans-6e" d="M 3513 2113 
L 3513 0 
L 2938 0 
L 2938 2094 
Q 2938 2591 2744 2837 
Q 2550 3084 2163 3084 
Q 1697 3084 1428 2787 
Q 1159 2491 1159 1978 
L 1159 0 
L 581 0 
L 581 3500 
L 1159 3500 
L 1159 2956 
Q 1366 3272 1645 3428 
Q 1925 3584 2291 3584 
Q 2894 3584 3203 3211 
Q 3513 2838 3513 2113 
z
" transform="scale(0.015625)"/>
       <path id="DejaVuSans-73" d="M 2834 3397 
L 2834 2853 
Q 2591 2978 2328 3040 
Q 2066 3103 1784 3103 
Q 1356 3103 1142 2972 
Q 928 2841 928 2578 
Q 928 2378 1081 2264 
Q 1234 2150 1697 2047 
L 1894 2003 
Q 2506 1872 2764 1633 
Q 3022 1394 3022 966 
Q 3022 478 2636 193 
Q 2250 -91 1575 -91 
Q 1294 -91 989 -36 
Q 684 19 347 128 
L 347 722 
Q 666 556 975 473 
Q 1284 391 1588 391 
Q 1994 391 2212 530 
Q 2431 669 2431 922 
Q 2431 1156 2273 1281 
Q 2116 1406 1581 1522 
L 1381 1569 
Q 847 1681 609 1914 
Q 372 2147 372 2553 
Q 372 3047 722 3315 
Q 1072 3584 1716 3584 
Q 2034 3584 2315 3537 
Q 2597 3491 2834 3397 
z
" transform="scale(0.015625)"/>
       <path id="DejaVuSans-65" d="M 3597 1894 
L 3597 1613 
L 953 1613 
Q 991 1019 1311 708 
Q 1631 397 2203 397 
Q 2534 397 2845 478 
Q 3156 559 3463 722 
L 3463 178 
Q 3153 47 2828 -22 
Q 2503 -91 2169 -91 
Q 1331 -91 842 396 
Q 353 884 353 1716 
Q 353 2575 817 3079 
Q 1281 3584 2069 3584 
Q 2775 3584 3186 3129 
Q 3597 2675 3597 1894 
z
M 3022 2063 
Q 3016 2534 2758 2815 
Q 2500 3097 2075 3097 
Q 1594 3097 1305 2825 
Q 1016 2553 972 2059 
L 3022 2063 
z
" transform="scale(0.015625)"/>
       <path id="DejaVuSans-6d" d="M 3328 2828 
Q 3544 3216 3844 3400 
Q 4144 3584 4550 3584 
Q 5097 3584 5394 3201 
Q 5691 2819 5691 2113 
L 5691 0 
L 5113 0 
L 5113 2094 
Q 5113 2597 4934 2840 
Q 4756 3084 4391 3084 
Q 3944 3084 3684 2787 
Q 3425 2491 3425 1978 
L 3425 0 
L 2847 0 
L 2847 2094 
Q 2847 2600 2669 2842 
Q 2491 3084 2119 3084 
Q 1678 3084 1418 2786 
Q 1159 2488 1159 1978 
L 1159 0 
L 581 0 
L 581 3500 
L 1159 3500 
L 1159 2956 
Q 1356 3278 1631 3431 
Q 1906 3584 2284 3584 
Q 2666 3584 2933 3390 
Q 3200 3197 3328 2828 
z
" transform="scale(0.015625)"/>
       <path id="DejaVuSans-62" d="M 3116 1747 
Q 3116 2381 2855 2742 
Q 2594 3103 2138 3103 
Q 1681 3103 1420 2742 
Q 1159 2381 1159 1747 
Q 1159 1113 1420 752 
Q 1681 391 2138 391 
Q 2594 391 2855 752 
Q 3116 1113 3116 1747 
z
M 1159 2969 
Q 1341 3281 1617 3432 
Q 1894 3584 2278 3584 
Q 2916 3584 3314 3078 
Q 3713 2572 3713 1747 
Q 3713 922 3314 415 
Q 2916 -91 2278 -91 
Q 1894 -91 1617 61 
Q 1341 213 1159 525 
L 1159 0 
L 581 0 
L 581 4863 
L 1159 4863 
L 1159 2969 
z
" transform="scale(0.015625)"/>
       <path id="DejaVuSans-6c" d="M 603 4863 
L 1178 4863 
L 1178 0 
L 603 0 
L 603 4863 
z
" transform="scale(0.015625)"/>
      </defs>
      <use xlink:href="#DejaVuSans-52"/>
      <use xlink:href="#DejaVuSans-69" x="69.482422"/>
      <use xlink:href="#DejaVuSans-67" x="97.265625"/>
      <use xlink:href="#DejaVuSans-61" x="160.742188"/>
      <use xlink:href="#DejaVuSans-43" x="222.021484"/>
      <use xlink:href="#DejaVuSans-61" x="291.845703"/>
      <use xlink:href="#DejaVuSans-70" x="353.125"/>
      <use xlink:href="#DejaVuSans-20" x="416.601562"/>
      <use xlink:href="#DejaVuSans-45" x="448.388672"/>
      <use xlink:href="#DejaVuSans-6e" x="511.572266"/>
      <use xlink:href="#DejaVuSans-73" x="574.951172"/>
      <use xlink:href="#DejaVuSans-65" x="627.050781"/>
      <use xlink:href="#DejaVuSans-6d" x="688.574219"/>
      <use xlink:href="#DejaVuSans-62" x="785.986328"/>
      <use xlink:href="#DejaVuSans-6c" x="849.462891"/>
      <use xlink:href="#DejaVuSans-65" x="877.246094"/>
     </g>
    </g>
    <g id="line2d_22">
     <path d="M 51.107031 56.317031 
L 60.107031 56.317031 
L 69.107031 56.317031 
" style="fill: none; stroke-dasharray: 6.66,2.88; stroke-dashoffset: 0; stroke: #9ca3af; stroke-width: 1.8"/>
    </g>
    <g id="text_17">
     <!-- S&amp;P 500 (SPY) -->
     <g transform="translate(76.307031 59.467031) scale(0.09 -0.09)">
      <defs>
       <path id="DejaVuSans-53" d="M 3425 4513 
L 3425 3897 
Q 3066 4069 2747 4153 
Q 2428 4238 2131 4238 
Q 1616 4238 1336 4038 
Q 1056 3838 1056 3469 
Q 1056 3159 1242 3001 
Q 1428 2844 1947 2747 
L 2328 2669 
Q 3034 2534 3370 2195 
Q 3706 1856 3706 1288 
Q 3706 609 3251 259 
Q 2797 -91 1919 -91 
Q 1588 -91 1214 -16 
Q 841 59 441 206 
L 441 856 
Q 825 641 1194 531 
Q 1563 422 1919 422 
Q 2459 422 2753 634 
Q 3047 847 3047 1241 
Q 3047 1584 2836 1778 
Q 2625 1972 2144 2069 
L 1759 2144 
Q 1053 2284 737 2584 
Q 422 2884 422 3419 
Q 422 4038 858 4394 
Q 1294 4750 2059 4750 
Q 2388 4750 2728 4690 
Q 3069 4631 3425 4513 
z
" transform="scale(0.015625)"/>
       <path id="DejaVuSans-26" d="M 1556 2509 
Q 1272 2256 1139 2004 
Q 1006 1753 1006 1478 
Q 1006 1022 1337 719 
Q 1669 416 2169 416 
Q 2466 416 2725 514 
Q 2984 613 3213 813 
L 1556 2509 
z
M 1997 2859 
L 3584 1234 
Q 3769 1513 3872 1830 
Q 3975 2147 3994 2503 
L 4575 2503 
Q 4538 2091 4375 1687 
Q 4213 1284 3922 891 
L 4794 0 
L 4006 0 
L 3559 459 
Q 3234 181 2878 45 
Q 2522 -91 2113 -91 
Q 1359 -91 881 339 
Q 403 769 403 1441 
Q 403 1841 612 2192 
Q 822 2544 1241 2853 
Q 1091 3050 1012 3245 
Q 934 3441 934 3628 
Q 934 4134 1281 4442 
Q 1628 4750 2203 4750 
Q 2463 4750 2720 4694 
Q 2978 4638 3244 4525 
L 3244 3956 
Q 2972 4103 2725 4179 
Q 2478 4256 2266 4256 
Q 1938 4256 1733 4082 
Q 1528 3909 1528 3634 
Q 1528 3475 1620 3314 
Q 1713 3153 1997 2859 
z
" transform="scale(0.015625)"/>
       <path id="DejaVuSans-50" d="M 1259 4147 
L 1259 2394 
L 2053 2394 
Q 2494 2394 2734 2622 
Q 2975 2850 2975 3272 
Q 2975 3691 2734 3919 
Q 2494 4147 2053 4147 
L 1259 4147 
z
M 628 4666 
L 2053 4666 
Q 2838 4666 3239 4311 
Q 3641 3956 3641 3272 
Q 3641 2581 3239 2228 
Q 2838 1875 2053 1875 
L 1259 1875 
L 1259 0 
L 628 0 
L 628 4666 
z
" transform="scale(0.015625)"/>
       <path id="DejaVuSans-28" d="M 1984 4856 
Q 1566 4138 1362 3434 
Q 1159 2731 1159 2009 
Q 1159 1288 1364 580 
Q 1569 -128 1984 -844 
L 1484 -844 
Q 1016 -109 783 600 
Q 550 1309 550 2009 
Q 550 2706 781 3412 
Q 1013 4119 1484 4856 
L 1984 4856 
z
" transform="scale(0.015625)"/>
       <path id="DejaVuSans-59" d="M -13 4666 
L 666 4666 
L 1959 2747 
L 3244 4666 
L 3922 4666 
L 2272 2222 
L 2272 0 
L 1638 0 
L 1638 2222 
L -13 4666 
z
" transform="scale(0.015625)"/>
       <path id="DejaVuSans-29" d="M 513 4856 
L 1013 4856 
Q 1481 4119 1714 3412 
Q 1947 2706 1947 2009 
Q 1947 1309 1714 600 
Q 1481 -109 1013 -844 
L 513 -844 
Q 928 -128 1133 580 
Q 1338 1288 1338 2009 
Q 1338 2731 1133 3434 
Q 928 4138 513 4856 
z
" transform="scale(0.015625)"/>
      </defs>
      <use xlink:href="#DejaVuSans-53"/>
      <use xlink:href="#DejaVuSans-26" x="63.476562"/>
      <use xlink:href="#DejaVuSans-50" x="141.455078"/>
      <use xlink:href="#DejaVuSans-20" x="201.757812"/>
      <use xlink:href="#DejaVuSans-35" x="233.544922"/>
      <use xlink:href="#DejaVuSans-30" x="297.167969"/>
      <use xlink:href="#DejaVuSans-30" x="360.791016"/>
      <use xlink:href="#DejaVuSans-20" x="424.414062"/>
      <use xlink:href="#DejaVuSans-28" x="456.201172"/>
      <use xlink:href="#DejaVuSans-53" x="495.214844"/>
      <use xlink:href="#DejaVuSans-50" x="558.691406"/>
      <use xlink:href="#DejaVuSans-59" x="616.744141"/>
      <use xlink:href="#DejaVuSans-29" x="677.828125"/>
     </g>
    </g>
   </g>
  </g>
 </g>
 <defs>
  <clipPath id="p8c3242ffd9">
   <rect x="43.007031" y="31.318125" width="626.51" height="275.36"/>
  </clipPath>
 </defs>
</svg>
